<?xml version="1.0"?>
<svg width="100" height="100" xmlns="http://www.w3.org/2000/svg" xmlns:svg="http://www.w3.org/2000/svg">
  <circle id="svg_3" r="50" cy="50" cx="50" stroke="null" fill="#884400" fill-opacity="0.5"/>
  <path fill="#884400" stroke="#503000" stroke-dasharray="null" stroke-linejoin="round" stroke-linecap="round" d="m82.369736,0.734375c-4.070084,0.865776 -7.217018,6.573219 -6.92244,11.249156c0.480545,5.322873 5.984077,1.985402 7.608948,0.481117c-0.973129,4.454768 -8.725334,5.371001 -8.289322,-0.048185c-5.905182,5.062512 -10.327049,12.99854 -17.640572,15.563718c-6.600651,1.779982 -13.516003,1.192303 -20.170448,0.152006c-4.048187,-0.440331 -7.912674,-2.815601 -11.988184,-2.318619c-4.370073,1.392145 -7.875439,5.104176 -12.233006,6.567612c-4.595283,2.337681 -2.840086,8.792587 -3.23837,13.366043c0.12141,6.808014 -0.953143,14.020046 -5.03592,19.212585c-2.376861,4.091423 -2.594858,9.473495 -4.50106,13.741745c6.340457,-0.075981 2.520078,-9.923088 6.006102,-13.924744c4.865208,-2.617661 4.726746,-9.808006 5.405271,-15.103535c0.492427,-2.138828 0.247211,-9.724087 2.208117,-8.700722c2.409096,6.288589 3.778228,13.318783 3.233546,20.208561c-3.18665,3.474594 -8.256886,5.950043 -7.524348,12.356522c0.243082,5.801285 -2.795348,9.978508 -5.166396,14.532494c1.52235,2.673111 0.333805,8.023964 4.710935,6.456421c2.923965,0.654991 4.372498,-0.921547 1.482996,-3.264938c-4.361857,-4.87188 1.71571,-11.309402 4.075091,-15.573662c2.436606,-4.761063 7.395497,-4.989212 11.020034,-7.808372c5.008852,-3.472626 8.670443,-8.83741 11.990755,-14.261581c2.909409,3.590813 -4.590454,6.879993 -5.69684,10.546524c-2.412167,3.004578 -6.724537,8.473366 -1.000507,10.333946c4.424482,1.758942 8.595869,5.346497 8.462454,10.972145c0.074486,3.816948 8.135689,7.275787 6.484261,1.075035c-2.78772,-5.787155 -9.45533,-8.059837 -11.228024,-14.61882c-1.227882,-5.03389 3.872368,-7.472183 6.316315,-3.389008c4.3274,-0.550865 8.870472,-3.89283 13.616646,-4.40683c4.89225,-2.116352 6.028591,5.633324 9.950558,7.663574c3.265594,3.753006 6.263557,8.504829 5.852806,14.142677c0.395889,4.771965 3.178864,9.757675 7.984833,9.266632c5.602448,-1.088776 -1.70369,-8.025902 -4.273972,-9.620903c-3.71875,-5.155609 -3.104294,-12.484619 -5.41938,-18.42086c-1.671158,-1.753456 0.077049,-10.256844 0.136467,-4.173317c-0.302155,6.971924 8.251595,2.971497 7.667702,-2.360779c1.455505,-4.248386 -3.8675,-1.627247 -3.164406,-5.909676c-0.574234,-5.330738 -0.244858,-11.9231 -4.226158,-15.57539c-2.29525,-2.620903 -1.597107,-2.875809 0.901093,-0.803905c4.870056,2.930466 3.922119,9.612408 4.263519,14.879345c1.411011,6.901924 7.113358,-2.033718 6.944595,-5.776226c0.978073,-8.126556 4.312874,-16.464706 10.816978,-20.42494c-1.745125,-0.994377 -10.326485,2.61191 -9.60379,-1.925648c3.535339,3.490591 8.404984,-0.310007 12.58477,0.718376c5.545815,0.264612 6.922417,-8.837145 0.844017,-9.281794c-3.931648,-2.705826 -7.315613,-7.490422 -12.398781,-7.118436c-7.368484,2.86943 -2.815041,-5.082836 -0.846886,-8.675345l0,0zm7.209755,3.684022c-0.554642,2.247114 -4.208733,6.832376 0.190414,4.976904c0.631493,-1.515737 0.374329,-3.477485 -0.190414,-4.976904zm-1.165962,10.215169c1.970695,3.806665 -3.941544,0.398849 0,0zm8.140236,3.935808c-0.685585,1.623499 1.842041,1.926292 -0.108932,1.92485c-1.029938,1.590889 -1.477821,-2.053993 0.108932,-1.92485z" id="svg_6"/>
</svg>