<?xml version="1.0"?>
<svg width="100" height="100" xmlns="http://www.w3.org/2000/svg" xmlns:svg="http://www.w3.org/2000/svg">
  <path id="svg_1" d="m10.03056,89.51757c-3.679764,-0.474358 -0.085217,-7.819801 -1.473228,-11.221558c-0.014165,-5.008499 -1.469533,-9.939011 -0.996068,-14.920906c2.895873,-8.781029 0.482767,-18.372055 -0.152244,-27.417412c-0.286975,-1.99752 -0.278789,-7.12767 -0.992334,-2.566048c-1.976126,7.689568 -0.04577,17.194153 -1.736033,24.981621c-2.82478,4.336338 -4.958713,-2.543217 -2.261987,-5.180553c3.15047,-6.334785 2.389281,-14.865776 2.49499,-22.763556c-0.135464,-4.993284 1.433056,-11.264372 6.075379,-11.406021c3.971227,-0.384115 7.731746,2.032684 11.738313,1.734112c11.68512,0.232025 23.485592,0.362261 35.022503,-2.356852c5.759014,-1.695148 11.492321,1.296803 17.260212,0.083656c3.241287,0.446854 4.955742,-1.488846 3.527161,-5.122576c2.414635,-2.126785 4.271942,4.033997 5.344345,-1.453685c3.888206,-3.421716 4.430176,6.680867 8.735992,3.827691c5.193954,0.859447 -2.256805,6.793015 2.091873,9.763132c2.629372,2.590759 6.655632,9.008257 1.425209,10.858389c-4.497131,-0.40406 -9.004356,-0.026623 -13.504494,0.251007c-2.082573,4.441868 -6.414833,7.773243 -5.940308,13.59272c-0.359489,6.943256 -4.167679,13.788586 -9.380592,15.944836c-2.228157,-0.563766 -3.199593,0.356506 -2.921585,3.270531c-1.150906,3.807747 -1.353752,7.824593 -1.217133,11.87574c-0.340977,2.233276 0.383377,3.969292 1.41291,5.690163c-1.210827,2.679138 -8.148632,1.092361 -5.52039,-3.976959c0.672272,-6.648506 -0.118744,-13.324608 -0.707928,-19.935127c-2.764889,-2.511822 -6.116703,-1.592506 -8.915058,0.425941c-6.173615,2.891167 -13.3195,5.629341 -19.651712,1.918602c-3.530144,-1.259735 -8.854708,-2.196228 -11.478519,1.606781c-1.180662,5.735764 -0.86503,11.894737 -1.871504,17.716057c-0.017124,3.043335 2.249681,5.655884 -1.590501,4.805969c-1.604651,0.047523 -3.214108,0.112183 -4.81727,-0.025696l0,0zm3.277045,-6.476418c0.631283,-2.725784 -0.911195,-9.649979 -1.043346,-3.19162c-0.525212,2.048805 0.142925,11.891907 0.92757,5.357376c0.049867,-0.720634 0.084876,-1.443192 0.115776,-2.165756z" stroke-linecap="round" stroke-linejoin="round" stroke-dasharray="null" stroke-width="1" stroke="#553000" fill="#884400"/>
 </svg>
