<?xml version="1.0"?>
<svg width="100" height="100" xmlns="http://www.w3.org/2000/svg" xmlns:svg="http://www.w3.org/2000/svg">
  <circle fill-opacity="0.25" fill="#996600" stroke="null" cx="50" cy="50" r="50" id="svg_3"/>
  <path fill="#996600" stroke="#000000" stroke-dasharray="null" stroke-linejoin="null" stroke-linecap="null" d="m18.334843,18.130644c-3.144846,3.174547 -7.604634,4.316727 -11.633347,4.901142c-3.436454,-0.420008 -8.826568,2.954817 -5.306899,7.555923c2.512124,6.41762 7.930274,1.13645 11.572466,0.799692c2.240115,0.734093 3.003405,10.274208 4.880227,3.970631c1.276115,-5.22393 6.984756,-3.585686 10.013222,-1.780212c4.707077,1.775005 2.812593,8.935177 5.518654,12.90913c4.066666,5.192162 -0.556953,11.812546 -4.13616,15.253918c-4.236971,3.061958 -6.165949,7.985016 -5.577234,13.856071c0.016443,5.953171 -1.325878,12.422569 1.279161,17.851173c3.93718,0.636299 0.54521,-8.032898 1.635704,-11.071388c0.40267,-5.437706 -0.640343,-12.239235 3.62282,-15.870102c3.814816,-4.043934 7.830685,-7.897167 12.117508,-11.158833c4.056747,-0.252037 3.452736,7.179001 4.644047,10.66444c0.953644,5.333191 1.371243,11.142021 1.228207,16.362488c1.03817,4.297966 1.832134,9.724754 -0.469166,12.75309c4.289146,0.544319 8.217865,-5.207108 4.70438,-9.817169c-1.415699,-6.439194 -1.897255,-13.146294 -2.950954,-19.691643c-0.431286,-4.659698 -1.115856,-10.236473 1.607151,-14.081142c4.006046,-0.167183 8.082443,4.906013 12.491791,1.856125c3.871883,-3.026783 11.035404,-2.640896 10.505009,4.775841c-1.067825,6.008564 0.515739,11.962429 0.742393,17.696926c-1.137428,7.445114 -7.361038,11.052513 -9.801376,17.602562c2.319382,3.895157 5.853661,-1.68483 8.190819,-3.472054c-0.578575,-5.248756 3.869797,-8.048683 5.221016,-12.490227c2.320633,-6.047653 -1.06472,-13.028351 -0.916016,-18.728951c-1.982056,-4.874996 2.020164,-6.051052 3.67939,-1.602657c2.667458,4.096104 6.987244,6.789913 7.905945,12.29314c2.457535,4.197472 3.61245,9.085472 5.196999,13.748436c1.356674,2.509438 3.551727,7.281235 4.257141,1.434433c1.280609,-3.504021 0.474571,-5.843819 -2.097969,-6.125404c-4.378311,-5.908783 -3.599686,-15.151466 -8.547256,-20.666687c-3.621758,-2.784729 -7.330971,-5.805714 -8.588913,-11.252014c-2.230164,-4.436371 -2.983398,-9.832909 -1.87114,-14.884727c1.450241,-0.851242 2.383324,2.560322 1.284569,-1.24243c-2.352913,-4.771858 -7.222527,-6.6329 -11.398094,-8.127918c-4.605762,-1.74267 -9.397568,-2.263445 -14.170441,-1.412317c-4.070316,1.269157 -8.493313,2.510431 -12.519287,0.229406c-3.58865,-2.607006 -7.755943,-2.116898 -11.420876,-0.145176c-2.763481,1.85243 -8.289228,-0.069584 -4.449789,-3.91725c-1.546654,-1.639082 -7.066015,3.045639 -2.970858,-0.956242c1.961287,-2.433795 2.900339,-7.50569 2.179985,-10.140624c-0.776182,3.245907 -1.894632,3.110406 -1.794718,-0.320219c-0.677584,6.117108 -4.031633,2.173849 -3.506918,0.404688c0.221874,2.473336 -0.852562,5.187817 -1.901859,1.305139c-0.120766,2.510817 0.956059,6.122828 -1.25568,7.154498c3.373091,3.766287 -4.401894,0.9792 -4.385656,-2.006569c-2.054698,-3.796856 -2.367956,-1.744437 -1.530689,1.300158c-1.526063,-1.350508 -3.480359,-3.905407 -1.781433,0.059678c1.94278,5.384484 7.215452,3.208705 10.504133,4.223205l0,0l-0.000008,0.000021z" id="svg_1"/>
 </svg>
