<?xml version="1.0" encoding="UTF-8" standalone="no"?>
<!-- Created with Inkscape (http://www.inkscape.org/) -->

<svg
   xmlns:dc="http://purl.org/dc/elements/1.1/"
   xmlns:cc="http://creativecommons.org/ns#"
   xmlns:rdf="http://www.w3.org/1999/02/22-rdf-syntax-ns#"
   xmlns:svg="http://www.w3.org/2000/svg"
   xmlns="http://www.w3.org/2000/svg"
   xmlns:sodipodi="http://sodipodi.sourceforge.net/DTD/sodipodi-0.dtd"
   xmlns:inkscape="http://www.inkscape.org/namespaces/inkscape"
   width="744.09448819"
   height="1052.3622047"
   id="svg2"
   version="1.1"
   inkscape:version="0.48.3.1 r9886"
   sodipodi:docname="New document 1">
  <defs
     id="defs4" />
  <sodipodi:namedview
     id="base"
     pagecolor="#ffffff"
     bordercolor="#666666"
     borderopacity="1.0"
     inkscape:pageopacity="0.0"
     inkscape:pageshadow="2"
     inkscape:zoom="0.35"
     inkscape:cx="375"
     inkscape:cy="520"
     inkscape:document-units="px"
     inkscape:current-layer="layer1"
     showgrid="false"
     inkscape:window-width="956"
     inkscape:window-height="654"
     inkscape:window-x="175"
     inkscape:window-y="24"
     inkscape:window-maximized="0" />
  <metadata
     id="metadata7">
    <rdf:RDF>
      <cc:Work
         rdf:about="">
        <dc:format>image/svg+xml</dc:format>
        <dc:type
           rdf:resource="http://purl.org/dc/dcmitype/StillImage" />
        <dc:title></dc:title>
      </cc:Work>
    </rdf:RDF>
  </metadata>
  <g
     inkscape:label="Layer 1"
     inkscape:groupmode="layer"
     id="layer1">
    <path
       style="fill:#00ff00;stroke:#000000;stroke-width:1px;stroke-linecap:butt;stroke-linejoin:miter;stroke-opacity:1"
       d="m 225.71429,835.21933 c -12.79676,6.04294 -11.00019,-8.35724 -17.14286,-11.42858 -0.85184,-0.42591 -2.00531,0.42592 -2.85714,0 -1.20468,-0.60233 -1.90477,-1.90476 -2.85715,-2.85714 -0.95238,-0.95238 -2.2548,-1.65246 -2.85714,-2.85714 -0.42592,-0.85184 0.67344,-2.18371 0,-2.85714 -1.34687,-1.34687 -4.36742,1.34687 -5.71429,0 -0.67343,-0.67344 0.42592,-2.00531 0,-2.85715 -9.47595,-9.47595 1.34687,2.69374 -2.85714,-5.71428 -0.60234,-1.20468 -1.90476,-1.90477 -2.85714,-2.85715 -0.95238,-0.95238 -1.73648,-2.11003 -2.85714,-2.85714 -1.77193,-1.18128 -4.20844,-1.3513 -5.71429,-2.85714 -1.50585,-1.50585 -1.67586,-3.94236 -2.85714,-5.71429 -1.73394,-2.6009 -7.30523,-6.03903 -8.57143,-8.57143 -0.42592,-0.85183 0.67343,-2.1837 0,-2.85714 -0.67344,-0.67343 -2.18371,0.67344 -2.85714,0 -0.67344,-0.67343 0.42591,-2.00531 0,-2.85714 -1.20468,-2.40936 -4.22007,-3.47296 -5.71429,-5.71429 -10.35797,-20.71594 3.01169,4.51754 -5.71429,-8.57143 -0.47115,-0.70673 -5.24313,-10.72184 -5.71428,-11.42857 -0.74711,-1.12066 -2.11004,-1.73648 -2.85714,-2.85714 -1.18129,-1.77193 -1.90477,-3.80952 -2.85715,-5.71429 -0.95238,-1.90476 -2.1837,-3.69398 -2.85714,-5.71428 -1.75925,-5.27775 4.35972,-1.35456 -2.85714,-8.57143 -1.50585,-1.50585 -3.94236,-1.67586 -5.71429,-2.85714 -1.12066,-0.74711 -1.65246,-2.25481 -2.85714,-2.85715 -0.85184,-0.42591 -2.18371,0.67344 -2.85714,0 -1.34687,-1.34687 1.34687,-4.36741 0,-5.71428 -0.67344,-0.67344 -2.18371,0.67343 -2.85715,0 -0.96349,-0.96349 0.96349,-4.7508 0,-5.71429 -0.67343,-0.67343 -2.1837,0.67344 -2.85714,0 -11.15067,-11.15067 0.66136,-1.53442 -2.85714,-8.57143 -0.60234,-1.20467 -2.43123,-1.57939 -2.85715,-2.85714 -0.60233,-1.80701 0.60234,-3.90727 0,-5.71428 -0.85183,-2.55551 -4.5096,-3.30494 -5.71428,-5.71429 -0.85184,-1.70367 0.85183,-4.01062 0,-5.71429 -1.20468,-2.40935 -4.50961,-3.30493 -5.71429,-5.71428 -0.85183,-1.70367 0.85184,-4.01062 0,-5.71429 -1.20467,-2.40935 -4.862447,-3.15878 -5.714283,-5.71428 -0.602338,-1.80702 0.602339,-3.90727 0,-5.71429 -0.425918,-1.27775 -2.254804,-1.65246 -2.857143,-2.85714 -0.425917,-0.85184 0.425918,-2.00531 0,-2.85714 -0.602338,-1.20468 -2.431225,-1.57939 -2.857143,-2.85715 -0.602338,-1.80701 0.602339,-3.90727 0,-5.71428 -0.425917,-1.27776 -2.254804,-1.65247 -2.857142,-2.85715 -1.142858,-2.28571 1.142857,-6.28571 0,-8.57142 -0.602339,-1.20468 -2.254805,-1.65247 -2.857143,-2.85715 -0.425918,-0.85183 0,-1.90476 0,-2.85714 0,-2.0426 0.487512,-15.68032 0,-17.14286 -0.425918,-1.27775 -2.254805,-1.65246 -2.857143,-2.85714 -0.825075,-1.65015 0.700785,-14.33972 0,-17.14286 -0.516501,-2.066 -2.340642,-3.64828 -2.857143,-5.71428 -0.923945,-3.69578 0.923945,-7.73279 0,-11.42857 -0.516501,-2.06601 -2.340642,-3.64829 -2.857143,-5.71429 -0.461972,-1.84789 0.602339,-3.90727 0,-5.71429 -0.425918,-1.27775 -2.431225,-1.57939 -2.857143,-2.85714 -0.602338,-1.80701 0.602339,-3.90727 0,-5.71428 -0.425917,-1.27776 -2.431225,-1.57939 -2.857143,-2.85715 -0.857142,-2.57143 0.857143,-6 0,-8.57143 -2.30974,-6.92922 -6.902573,-7.61029 -8.571428,-14.28571 -0.461973,-1.84789 0.602338,-3.90727 0,-5.71429 C 62.431225,522.513 60.425918,522.21136 60,520.93361 c -0.857143,-2.57143 0.857143,-6 0,-8.57143 -0.673435,-2.0203 -2.340642,-3.64828 -2.857143,-5.71428 -0.461972,-1.84789 0,-3.80953 0,-5.71429 0,-0.95238 0.425918,-2.00531 0,-2.85714 -0.602338,-1.20468 -2.431225,-1.57939 -2.857143,-2.85714 -0.602338,-1.80702 0,-3.80953 0,-5.71429 0,-0.95238 0.425918,-2.00531 0,-2.85714 -0.602338,-1.20468 -2.254804,-1.65247 -2.857143,-2.85715 -0.774982,-1.54996 0.781778,-10.64679 0,-11.42857 -0.673435,-0.67343 -2.183707,0.67344 -2.857142,0 -0.673435,-0.67343 0,-1.90476 0,-2.85714 0,-4.76191 0,-9.52381 0,-14.28571 0,-6.70051 0.673435,1.34687 -2.857143,-5.71429 -0.369358,-0.73872 0,-15.11771 0,-17.14286 0,-5.71428 0,-11.42857 0,-17.14285 0,-0.67895 -0.320186,-10.7882 0,-11.42858 0.602338,-1.20467 2.254804,-1.65246 2.857143,-2.85714 0.566417,-1.13283 -0.584105,-7.98732 0,-8.57143 0.673435,-0.67343 2.183707,0.67344 2.857142,0 1.34687,-1.34687 -1.34687,-4.36741 0,-5.71428 0.673435,-0.67344 2.183708,0.67343 2.857143,0 1.34687,-1.34687 -1.34687,-4.36742 0,-5.71429 0.673435,-0.67343 2.183708,0.67344 2.857143,0 0.958744,-0.95874 -0.958744,-4.75554 0,-5.71428 0.673435,-0.67344 2.183708,0.67343 2.857143,0 1.34687,-1.34687 -1.34687,-4.36742 0,-5.71429 0.673435,-0.67344 2.183708,0.67343 2.857143,0 0,-7.61905 -0.952381,0.95238 2.857143,-2.85714 1.34687,-1.34687 -1.904762,-5.71429 0,-5.71429 0.952381,0 -0.673435,2.18371 0,2.85714 0.673435,0.67344 2.183708,-0.67343 2.857143,0 1.428571,1.42858 -1.428572,7.14286 0,8.57143 0.673435,0.67344 2.183707,-0.67343 2.857142,0 0.687518,0.68752 -0.687517,10.74106 0,11.42857 0.673435,0.67344 2.183708,-0.67343 2.857143,0 1.34687,1.34687 -0.851835,4.01062 0,5.71429 0.602339,1.20468 2.254805,1.65247 2.857143,2.85714 0.566417,1.13284 -0.584104,7.98733 0,8.57143 0.673435,0.67344 2.183708,-0.67343 2.857143,0 1.34687,1.34687 -0.851835,4.01062 0,5.71429 0.602339,1.20467 2.254804,1.65246 2.857143,2.85714 0.425918,0.85184 -0.425918,2.00531 0,2.85714 1.204677,2.40936 4.509608,3.30493 5.714286,5.71429 0.425917,0.85183 -0.30117,1.95363 0,2.85714 0.673435,2.02031 2.183707,3.69398 2.857142,5.71429 0.30117,0.9035 -0.425917,2.0053 0,2.85714 0.602339,1.20468 2.254805,1.65247 2.857143,2.85714 0.425918,0.85184 -0.425917,2.00531 0,2.85715 6.538006,13.07602 -1.184206,-12.12405 5.714286,8.57142 0.30117,0.90351 -0.673435,2.18371 0,2.85715 0.67344,0.67343 2.43123,-0.85184 2.85714,0 0.85184,1.70367 -0.60234,3.90727 0,5.71428 0.85184,2.55551 4.50961,3.30493 5.71429,5.71429 0.42592,0.85183 0,1.90476 0,2.85714 0,4.25262 -0.42592,3.64684 2.85714,8.57143 1.49422,2.24133 4.50961,3.30493 5.71429,5.71429 0.42591,0.85183 -0.30117,1.95363 0,2.85714 0.67343,2.0203 1.90476,3.80952 2.85714,5.71428 0.95238,1.90477 1.67586,3.94236 2.85714,5.71429 1.49422,2.24133 4.86245,3.15878 5.71429,5.71429 0.60234,1.80701 -0.60234,3.90727 0,5.71428 0.42592,1.27775 2.2548,1.65247 2.85714,2.85714 0.42592,0.85184 -0.42592,2.00531 0,2.85715 0.60234,1.20467 2.25481,1.65246 2.85714,2.85714 0.42592,0.85184 -0.42591,2.00531 0,2.85714 0.60234,1.20468 2.11004,1.73648 2.85715,2.85715 1.18128,1.77192 1.67586,3.94236 2.85714,5.71428 0.74711,1.12066 2.43123,1.57939 2.85714,2.85714 0.60234,1.80702 -0.60234,3.90727 0,5.71429 0.42592,1.27775 1.90476,1.90476 2.85715,2.85714 0.37633,0.37633 14.02407,13.50079 14.28571,14.28572 0.60234,1.80701 -0.60234,3.90727 0,5.71428 0.85184,2.55551 4.50961,3.30493 5.71429,5.71429 0.42591,0.85183 -0.42592,2.00531 0,2.85714 0.60233,1.20468 2.2548,1.65247 2.85714,2.85714 0.42592,0.85184 -0.42592,2.00531 0,2.85715 0.60234,1.20467 1.90476,1.90476 2.85714,2.85714 0.95238,0.95238 1.90476,1.90476 2.85714,2.85714 9.47595,9.47595 -1.34687,-2.69374 2.85715,5.71429 1.20467,2.40935 4.50961,3.30493 5.71428,5.71428 0.42592,0.85184 -0.30117,1.95364 0,2.85715 0.67344,2.0203 2.18371,3.69398 2.85715,5.71428 0.30117,0.90351 -0.42592,2.00531 0,2.85715 6.53801,13.07602 -1.18421,-12.12405 5.71428,8.57142 0.30117,0.90351 -0.67343,2.18371 0,2.85715 1.50585,1.50584 4.20844,1.35129 5.71429,2.85714 0.67343,0.67343 -0.42592,2.00531 0,2.85714 0.60234,1.20468 1.90476,1.90476 2.85714,2.85715 0,1.90476 -0.60234,3.90727 0,5.71428 0.85184,2.55551 4.50961,3.30493 5.71429,5.71429 0.85183,1.70367 -0.85184,4.01061 0,5.71428 0.60233,1.20468 2.2548,1.65247 2.85714,2.85715 0.42592,0.85183 -0.42592,2.0053 0,2.85714 1.20468,2.40935 4.50961,3.30493 5.71428,5.71428 0.42592,0.85184 -0.42591,2.00531 0,2.85715 0.60234,1.20467 2.25481,1.65246 2.85715,2.85714 3.5185,7.037 -8.29353,-2.57924 2.85714,8.57143 0.67344,0.67343 2.18371,-0.67344 2.85714,0 0.67344,0.67343 -0.42591,2.00531 0,2.85714 0.60234,1.20468 2.25481,1.65247 2.85715,2.85714 0.42591,0.85184 -0.67344,2.18371 0,2.85715 0.67343,0.67343 2.1837,-0.67344 2.85714,0 0.96349,0.96349 -0.96349,4.75079 0,5.71428 0.67343,0.67344 2.18371,-0.67343 2.85714,0 1.34687,1.34687 -0.85183,4.01062 0,5.71429 1.20468,2.40935 4.50961,3.30493 5.71429,5.71428 0.42591,0.85184 -0.42592,2.00531 0,2.85715 0.60234,1.20467 2.2548,1.65246 2.85714,2.85714 0.42592,0.85184 -0.42592,2.00531 0,2.85714 0.60234,1.20468 2.2548,1.65247 2.85714,2.85715 0.56642,1.13283 -0.5841,7.98732 0,8.57142 0.67344,0.67344 2.18371,-0.67343 2.85715,0 0.67343,0.67344 -0.67344,2.18371 0,2.85715 0.67343,0.67343 2.1837,-0.67344 2.85714,0 0.96349,0.96349 -0.96349,4.75079 0,5.71428 3.80952,3.80953 2.85714,-4.7619 2.85714,2.85715 0,7.51483 2.29344,-1.12742 5.71429,5.71428 0.42591,0.85184 -0.67344,2.18371 0,2.85714 0.67343,0.67344 2.1837,-0.67343 2.85714,0 0.28571,0.28572 -1.33333,9.90477 2.85714,5.71429 0.12949,-0.12949 0,-12.93858 0,-14.28571 0,-0.95239 -0.67343,-2.18371 0,-2.85715 0.67344,-0.67343 2.18371,0.67344 2.85715,0 0.67343,-0.67343 0,-1.90476 0,-2.85714 0,-0.95238 0,-1.90476 0,-2.85714 0,-9.52381 0,-19.04762 0,-28.57143 0,-10.47619 0,-20.95238 0,-31.42857 0,-1.97292 0.43433,-10.5599 0,-11.42857 -0.60234,-1.20468 -2.43123,-1.57939 -2.85715,-2.85715 -0.60234,-1.80701 0,-3.80952 0,-5.71428 0,-5.71429 0,-11.42857 0,-17.14286 0,-1.90476 0.46198,-3.8664 0,-5.71429 -0.5165,-2.066 -2.06623,-3.73701 -2.85714,-5.71428 -1.11851,-2.79629 -1.73863,-5.77514 -2.85714,-8.57143 -0.79091,-1.97727 -2.34064,-3.64828 -2.85715,-5.71429 -1.24017,-4.9607 1.24018,-12.18215 0,-17.14285 -0.5165,-2.06601 -2.34064,-3.64828 -2.85714,-5.71429 -0.46197,-1.84789 0,-3.80952 0,-5.71428 0,-1.90477 0,-3.80953 0,-5.71429 0,-8.57143 0,-17.14286 0,-25.71429 0,-8.57142 0,-17.14285 0,-25.71428 0,-3.27618 -0.73992,-8.46888 0,-11.42857 0.5165,-2.06601 2.18371,-3.69398 2.85714,-5.71429 0.30117,-0.90351 -0.30117,-1.95363 0,-2.85714 0.67344,-2.02031 2.18371,-3.69398 2.85715,-5.71429 0.90351,-2.71052 -0.69296,-5.79959 0,-8.57143 3.44924,-13.79698 1.35777,0.14161 5.71428,-8.57142 0.42592,-0.85184 0,-1.90477 0,-2.85715 0,-2.02515 -0.36936,-16.40414 0,-17.14285 3.53058,-7.06116 2.85715,0.98622 2.85715,-5.71429 0,-0.95238 0,-1.90476 0,-2.85714 0,-0.95238 -0.42592,-2.00531 0,-2.85715 0.60233,-1.20467 2.2548,-1.65246 2.85714,-2.85714 0.77079,-1.54158 -0.77079,-4.1727 0,-5.71428 0.60234,-1.20468 2.2548,-1.65247 2.85714,-2.85715 0.85184,-1.70367 -0.85183,-4.01061 0,-5.71428 0.60234,-1.20468 2.25481,-1.65247 2.85714,-2.85715 0.42592,-0.85183 0,-1.90476 0,-2.85714 0,-0.95238 0,-1.90476 0,-2.85714 0,-5.71429 0,-11.42857 0,-17.14286 0,-0.95238 0,-1.90476 0,-2.85714 0,-0.95238 -0.42591,-2.00531 0,-2.85714 0.60234,-1.20468 2.25481,-1.65247 2.85715,-2.85715 0.56641,-1.13283 -0.58411,-7.98732 0,-8.57143 0.96349,-0.96349 4.75079,0.96349 5.71428,0 0.67344,-0.67343 -0.67343,-2.1837 0,-2.85714 0.67344,-0.67343 2.18371,-0.67343 2.85715,0 0.67343,0.67344 -0.67344,2.18371 0,2.85714 0.67343,0.67344 2.1837,-0.67343 2.85714,0 0.67343,0.67344 -0.67344,2.18371 0,2.85715 0.67343,0.67343 2.00531,-0.42592 2.85714,0 1.20468,0.60234 1.65247,2.2548 2.85714,2.85714 0.85184,0.42592 2.18371,-0.67344 2.85715,0 0.67343,0.67343 -0.67344,2.18371 0,2.85714 0.67343,0.67344 2.1837,-0.67343 2.85714,0 1.34687,1.34687 -1.34687,4.36742 0,5.71429 0.67344,0.67343 2.18371,-0.67344 2.85714,0 0.67344,0.67343 -0.67343,2.18371 0,2.85714 0.67344,0.67344 2.18371,-0.67343 2.85715,0 1.34687,1.34687 -0.85184,4.01062 0,5.71429 0.60233,1.20467 2.2548,1.65246 2.85714,2.85714 0.42592,0.85184 -0.67344,2.18371 0,2.85714 0.67343,0.67344 2.18371,-0.67343 2.85714,0 1.34687,1.34687 -0.85183,4.01062 0,5.71429 0.60234,1.20468 2.25481,1.65246 2.85714,2.85714 0.42592,0.85184 -0.42591,2.00531 0,2.85714 0.60234,1.20468 2.43123,1.57939 2.85715,2.85715 0.60234,1.80701 0,3.80952 0,5.71428 0,0.95238 -0.42592,2.00531 0,2.85715 0.60234,1.20467 2.2548,1.65246 2.85714,2.85714 0.77498,1.54996 -0.78178,10.64679 0,11.42857 0.67344,0.67343 2.18371,-0.67344 2.85714,0 0.58411,0.5841 -0.56641,7.43859 0,8.57143 0.60234,1.20468 2.25481,1.65246 2.85715,2.85714 0.42591,0.85184 -0.42592,2.00531 0,2.85714 0.60233,1.20468 2.43122,1.57939 2.85714,2.85715 0.60234,1.80701 -0.60234,3.90727 0,5.71428 0.42592,1.27776 2.2548,1.65247 2.85714,2.85715 0.42592,0.85183 0,1.90476 0,2.85714 0,1.90476 -0.60234,3.90727 0,5.71428 0.42592,1.27776 2.43123,1.57939 2.85714,2.85715 0.60234,1.80701 0,3.80952 0,5.71428 0,2.45237 -0.55721,15.47121 0,17.14286 0.42592,1.27775 2.43123,1.57939 2.85715,2.85714 1.20467,3.61403 -1.20468,7.81454 0,11.42857 0.42591,1.27776 2.43122,1.57939 2.85714,2.85715 0.60234,1.80701 0,3.80952 0,5.71428 0,1.90476 0,3.80953 0,5.71429 0,7.61905 0,15.23809 0,22.85714 0,2.85714 0,5.71429 0,8.57143 0.95238,0.95238 2.53048,1.55049 2.85714,2.85714 0.69296,2.77184 0,5.71429 0,8.57143 0,1.90476 0,3.80952 0,5.71429 0,9.52381 0,19.04762 0,28.57143 0,1.59473 -0.43596,12.97781 0,14.28571 0.42592,1.27775 2.25481,1.65247 2.85715,2.85714 0.85183,1.70367 -0.60234,3.90727 0,5.71429 0.67343,2.0203 2.1837,3.69398 2.85714,5.71428 0.53733,1.612 0,6.69398 0,8.57143 0,5.71429 0,11.42857 0,17.14286 0,17.14286 0,34.28571 0,51.42857 0,12.38095 0,24.76191 0,37.14286 0,0.67227 -1.06443,9.63585 2.85714,5.71428 0.67344,-0.67343 -0.67343,-2.1837 0,-2.85714 0.67344,-0.67343 2.18371,0.67344 2.85714,0 1.34687,-1.34687 -1.34687,-4.36741 0,-5.71428 0.67344,-0.67344 2.18371,0.67343 2.85715,0 0.67343,-0.67344 -0.67344,-2.18371 0,-2.85715 0.67343,-0.67343 2.1837,0.67344 2.85714,0 1.34687,-1.34687 -1.34687,-4.36741 0,-5.71428 0.67344,-0.67344 2.18371,0.67343 2.85714,0 0.67344,-0.67344 -0.42591,-2.00531 0,-2.85715 0.60234,-1.20467 2.25481,-1.65246 2.85715,-2.85714 0.42591,-0.85183 -0.67344,-2.18371 0,-2.85714 0.67343,-0.67344 2.0053,0.42592 2.85714,0 11.89074,-5.94537 -3.05439,0.19724 2.85714,-5.71429 0.67344,-0.67343 2.18371,0.67344 2.85714,0 0.67344,-0.67343 -0.42591,-2.0053 0,-2.85714 9.47595,-9.47595 -1.34687,2.69374 2.85715,-5.71429 0.60234,-1.20467 2.2548,-1.65246 2.85714,-2.85714 0.42592,-0.85183 -0.67344,-2.18371 0,-2.85714 0.67344,-0.67344 2.18371,0.67343 2.85714,0 0.67344,-0.67344 -0.42591,-2.00531 0,-2.85714 1.12913,-2.25825 4.58516,-3.45604 5.71429,-5.71429 0.42592,-0.85184 0,-1.90476 0,-2.85714 0.95238,-1.90477 1.67586,-3.94236 2.85714,-5.71429 1.49422,-2.24133 4.86245,-3.15878 5.71429,-5.71428 0.60234,-1.80702 -0.60234,-3.90727 0,-5.71429 0.85183,-2.55551 4.50961,-3.30493 5.71428,-5.71429 0.42592,-0.85183 -0.42591,-2.0053 0,-2.85714 0.60234,-1.20468 2.43123,-1.57939 2.85715,-2.85714 0.60233,-1.80702 -0.60234,-3.90727 0,-5.71429 0.42591,-1.27775 2.2548,-1.65246 2.85714,-2.85714 0.42592,-0.85184 -0.42592,-2.00531 0,-2.85714 9.47595,-9.47595 -1.34687,2.69374 2.85714,-5.71429 0.60234,-1.20468 2.25481,-1.65246 2.85714,-2.85714 0.42592,-0.85184 -0.42591,-2.00531 0,-2.85714 0.60234,-1.20468 2.43123,-1.57939 2.85715,-2.85715 0.60234,-1.80701 -0.60234,-3.90727 0,-5.71428 0.42591,-1.27776 2.11003,-1.73648 2.85714,-2.85715 1.18128,-1.77192 1.90476,-3.80952 2.85714,-5.71428 0.95238,-1.90476 2.18371,-3.69398 2.85715,-5.71429 0.30117,-0.90351 -0.30117,-1.95363 0,-2.85714 1.34687,-4.04061 4.36741,-7.38796 5.71428,-11.42857 2.83508,-8.50524 -6.76534,5.8623 2.85714,-8.57143 0.74711,-1.12066 2.11004,-1.73648 2.85715,-2.85714 1.27834,-1.91751 4.43594,-9.51106 5.71428,-11.42857 0.74711,-1.12067 2.43123,-1.57939 2.85715,-2.85715 0.60233,-1.80701 -0.60234,-3.90727 0,-5.71428 0.6449,-1.93472 7.48015,-6.38889 8.57142,-8.57143 0.42592,-0.85184 -0.42591,-2.00531 0,-2.85714 9.47595,-9.47595 -1.34687,2.69374 2.85715,-5.71429 0.60234,-1.20468 2.2548,-1.65247 2.85714,-2.85714 0.42592,-0.85184 0,-1.90477 0,-2.85715 0.95238,-1.90476 1.67586,-3.94236 2.85714,-5.71428 2.10355,-3.15533 3.61074,-2.55896 5.71429,-5.71429 1.18128,-1.77192 1.67586,-3.94236 2.85714,-5.71428 0.74711,-1.12067 2.11004,-1.73648 2.85714,-2.85715 1.18129,-1.77192 1.67586,-3.94236 2.85715,-5.71428 0.74711,-1.12067 2.2548,-1.65247 2.85714,-2.85714 0.42592,-0.85184 -0.42592,-2.00531 0,-2.85715 1.20468,-2.40935 4.22007,-3.47296 5.71429,-5.71428 9.62248,-14.43373 0.0221,-0.0662 2.85714,-8.57143 0.67343,-2.02031 1.67586,-3.94236 2.85714,-5.71429 0.74711,-1.12066 2.43123,-1.57939 2.85714,-2.85714 0.60234,-1.80702 -0.60233,-3.90727 0,-5.71429 0.42592,-1.27775 2.11004,-1.73648 2.85715,-2.85714 1.18128,-1.77192 1.67586,-3.94236 2.85714,-5.71428 0.74711,-1.12067 2.2548,-1.65247 2.85714,-2.85715 0.42592,-0.85183 -0.30117,-1.95363 0,-2.85714 0.67344,-2.02031 2.18371,-3.69398 2.85715,-5.71429 0.60233,-1.80701 -0.60234,-3.90727 0,-5.71428 0.67343,-2.02031 2.1837,-3.69398 2.85714,-5.71429 0.30117,-0.90351 -0.42592,-2.0053 0,-2.85714 0.60234,-1.20468 2.2548,-1.65247 2.85714,-2.85714 0.85184,-1.70367 -0.85183,-4.01062 0,-5.71429 0.60234,-1.20468 2.25481,-1.65246 2.85714,-2.85714 0.85184,-1.70367 -0.60233,-3.90727 0,-5.71429 0.67344,-2.0203 2.18371,-3.69398 2.85715,-5.71428 0.59943,-1.79829 0,-11.71039 0,-14.28572 0,-0.69293 -0.0919,-8.47954 0,-8.57143 0.67343,-0.67343 2.1837,0.67344 2.85714,0 0.67344,-0.67343 0,-1.90476 0,-2.85714 0,-0.95238 0,-1.90476 0,-2.85714 0,-0.95238 0,-1.90476 0,-2.85714 0,-0.95239 0.67344,-2.18371 0,-2.85715 -0.4635,-0.46349 -17.89366,1.50162 -14.28571,-5.71428 0.60233,-1.20468 2.2548,-1.65247 2.85714,-2.85715 0.77498,-1.54996 -0.78178,-10.64679 0,-11.42857 0.67343,-0.67343 2.18371,0.67344 2.85714,0 1.34687,-1.34687 -1.34687,-4.36741 0,-5.71428 0.67344,-0.67344 2.18371,0.67343 2.85714,0 0.67344,-0.67344 -0.67343,-2.18371 0,-2.85715 0.67344,-0.67343 2.18371,0.67344 2.85715,0 0.67343,-0.67343 -0.67344,-2.1837 0,-2.85714 0.67343,-0.67343 2.1837,-0.67343 2.85714,0 0.67344,0.67344 -0.85184,2.43123 0,2.85714 1.70367,0.85184 4.01061,-0.85183 5.71429,0 0.85183,0.42592 -0.42592,2.00531 0,2.85715 0.60233,1.20467 2.2548,1.65246 2.85714,2.85714 0.85183,1.70367 -1.34687,4.36742 0,5.71429 0.67343,0.67343 2.18371,-0.67344 2.85714,0 0.67344,0.67343 -0.67343,2.1837 0,2.85714 0.67344,0.67343 2.18371,-0.67344 2.85714,0 1.34687,1.34687 -1.34687,4.36741 0,5.71428 0.67344,0.67344 2.18371,-0.67343 2.85715,0 0.5841,0.58411 -0.56642,7.4386 0,8.57143 0.60234,1.20468 2.2548,1.65247 2.85714,2.85715 0.42592,0.85183 -0.42592,2.0053 0,2.85714 0.60234,1.20468 2.2548,1.65246 2.85714,2.85714 0.85184,1.70367 -1.34687,4.36742 0,5.71429 0.67344,0.67343 2.18371,-0.67344 2.85715,0 1.34687,1.34687 -0.85184,4.01061 0,5.71428 0.60233,1.20468 2.2548,1.65247 2.85714,2.85715 0.42592,0.85183 -0.42592,2.0053 0,2.85714 0.60234,1.20468 2.2548,1.65246 2.85714,2.85714 0.42592,0.85184 -0.67343,2.18371 0,2.85714 0.67344,0.67344 2.18371,-0.67343 2.85714,0 0.67344,0.67344 -0.42591,2.00531 0,2.85715 0.60234,1.20467 2.25481,1.65246 2.85715,2.85714 0.85183,1.70367 -0.85184,4.01061 0,5.71429 9.47595,9.47595 -1.34687,-2.69374 2.85714,5.71428 0.60234,1.20468 2.2548,1.65247 2.85714,2.85714 0.85184,1.70367 -0.60234,3.90727 0,5.71429 0.67344,2.0203 2.18371,3.69398 2.85715,5.71429 0.85714,2.57142 -0.85715,6 0,8.57142 0.67343,2.02031 2.1837,3.69398 2.85714,5.71429 0.56202,1.68607 0,12.68935 0,14.28571 0,11.42858 0,22.85715 0,34.28572 0,5.71428 0,11.42857 0,17.14286 0,2.85714 0.90351,5.8609 0,8.57142 -0.42592,1.27776 -2.25481,1.65247 -2.85714,2.85715 -0.94675,1.8935 0.79821,9.03392 0,11.42857 -0.67344,2.0203 -2.18371,3.69398 -2.85715,5.71428 -1.01201,3.03604 1.01201,8.39254 0,11.42858 -0.42591,1.27775 -2.2548,1.65246 -2.85714,2.85714 -0.42592,0.85183 0.42592,2.00531 0,2.85714 -0.60234,1.20468 -2.2548,1.65247 -2.85714,2.85714 -0.42592,0.85184 0,1.90477 0,2.85715 0,1.90476 0.60234,3.90727 0,5.71428 -0.42592,1.27776 -2.25481,1.65247 -2.85715,2.85715 -0.42591,0.85183 0,1.90476 0,2.85714 -0.95238,0.95238 -2.2548,1.65246 -2.85714,2.85714 -2.53968,5.07937 1.5873,1.5873 2.85714,2.85714 0.40293,0.40293 0.29304,7.98535 0,8.57143 -9.47595,9.47595 1.34687,-2.69374 -2.85714,5.71429 -0.60234,1.20468 -2.2548,1.65246 -2.85714,2.85714 -0.42592,0.85184 0.52828,2.06472 0,2.85714 -1.49422,2.24133 -4.22007,3.47296 -5.71429,5.71429 -0.52828,0.79243 0.67344,2.18371 0,2.85714 -0.67343,0.67344 -2.43122,-0.85183 -2.85714,0 -0.85184,1.70367 0.85184,4.01062 0,5.71429 -2.95577,0 -3.949,-0.67344 -5.71429,2.85714 -0.42591,0.85184 0,1.90476 0,2.85714 -0.95238,0.95238 -2.2548,1.65247 -2.85714,2.85715 -0.42592,0.85183 0.42592,2.0053 0,2.85714 -1.20468,2.40935 -4.50961,3.30493 -5.71428,5.71429 -0.42592,0.85183 0,1.90476 0,2.85714 -0.95239,1.90476 -1.67586,3.94236 -2.85715,5.71428 -1.49422,2.24133 -4.50961,3.30494 -5.71428,5.71429 -0.42592,0.85184 0.30117,1.95363 0,2.85714 -6.89849,20.69548 0.82372,-4.50459 -5.71429,8.57143 -0.42592,0.85184 0.67344,2.18371 0,2.85714 -0.67343,0.67344 -2.18371,-0.67343 -2.85714,0 -0.67344,0.67344 0.42592,2.00531 0,2.85715 -1.20468,2.40935 -4.50961,3.30493 -5.71429,5.71428 -0.85183,1.70367 1.34687,4.36742 0,5.71429 -0.67343,0.67343 -2.1837,-0.67344 -2.85714,0 -0.67344,0.67343 0.42592,2.00531 0,2.85714 -1.15545,2.31089 -4.55884,3.4034 -5.71429,5.71429 -0.85183,1.70367 1.34687,4.36741 0,5.71428 -0.67343,0.67344 -2.1837,-0.67343 -2.85714,0 -0.67343,0.67344 0.67344,2.18371 0,2.85715 -0.67343,0.67343 -2.18371,-0.67344 -2.85714,0 -0.67344,0.67343 0.67343,2.1837 0,2.85714 -0.67344,0.67343 -2.18371,-0.67344 -2.85714,0 -1.34687,1.34687 1.34687,4.36741 0,5.71428 -0.67344,0.67344 -2.18371,-0.67343 -2.85715,0 -0.67343,0.67344 0.67344,2.18371 0,2.85715 -0.67343,0.67343 -2.1837,-0.67344 -2.85714,0 -0.67344,0.67343 0.67344,2.1837 0,2.85714 -0.67344,0.67343 -2.00531,-0.42592 -2.85714,0 -2.81151,1.40576 -8.61706,10.02282 -11.42857,11.42857 -0.85184,0.42592 -2.18371,-0.67343 -2.85715,0 -0.67343,0.67344 0.67344,2.18371 0,2.85714 -0.67343,0.67344 -2.1837,-0.67343 -2.85714,0 -0.67344,0.67344 0.67344,2.18371 0,2.85715 -0.67344,0.67343 -2.00531,-0.42592 -2.85714,0 -1.20468,0.60234 -1.65247,2.2548 -2.85715,2.85714 -0.85183,0.42592 -2.1837,-0.67344 -2.85714,0 -0.67343,0.67343 0.67344,2.18371 0,2.85714 -0.67343,0.67344 -2.18371,-0.67343 -2.85714,0 -0.67344,0.67344 0.67343,2.18371 0,2.85715 -0.67344,0.67343 -2.00531,-0.42592 -2.85714,0 -1.20468,0.60233 -1.65247,2.2548 -2.85715,2.85714 -0.85183,0.42592 -2.1837,-0.67344 -2.85714,0 -5.91153,5.91153 9.0336,-0.23109 -2.85714,5.71428 -0.85184,0.42592 -2.00531,-0.42591 -2.85715,0 -1.20467,0.60234 -1.65246,2.25481 -2.85714,2.85715 -0.85183,0.42591 -2.00531,-0.42592 -2.85714,0 -2.31238,1.15619 -3.40191,4.55809 -5.71429,5.71428 -0.85183,0.42592 -2.1837,-0.67343 -2.85714,0 -0.67344,0.67344 0.67344,2.18371 0,2.85715 -1.34687,1.34687 -4.01061,-0.85184 -5.71429,0 -11.89074,5.94537 3.05439,-0.19725 -2.85714,5.71428 -1.34687,1.34687 -4.01061,-0.85183 -5.71428,0 -2.40936,1.20468 -3.30494,4.50961 -5.71429,5.71429 -0.85184,0.42591 -1.95363,-0.30117 -2.85714,0 -2.02031,0.67343 -3.69398,2.1837 -5.71429,2.85714 -0.90351,0.30117 -2.00531,-0.42592 -2.85714,0 -1.20468,0.60234 -1.65247,2.2548 -2.85714,2.85714 -0.85184,0.42592 -1.90477,0 -2.85715,0 -0.95238,0.95238 -1.65246,2.25481 -2.85714,2.85715 -1.70367,0.85183 -4.01061,-0.85184 -5.71429,0 -1.20467,0.60233 -1.65246,2.2548 -2.85714,2.85714 -0.85183,0.42592 -2.18371,-0.67344 -2.85714,0 -0.67344,0.67343 0.67343,2.18371 0,2.85714 -1.34687,1.34687 -4.36742,-1.34687 -5.71429,0 -0.67343,0.67344 0.67344,2.18371 0,2.85714 -0.96349,0.96349 -4.75079,-0.96349 -5.71428,0 -0.67344,0.67344 0.67343,2.18371 0,2.85715 -0.67344,0.67343 -2.18371,-0.67344 -2.85715,0 -0.67343,0.67343 0.67344,2.1837 0,2.85714 -0.67343,0.67343 -2.1837,-0.67344 -2.85714,0 -0.67343,0.67343 0.67344,2.18371 0,2.85714 -0.96256,0.96256 -4.75172,-0.96256 -5.71428,0 -0.67344,0.67344 0.67343,2.18371 0,2.85715 -5.91153,5.91153 0.23108,-9.03361 -5.71429,2.85714 -0.42592,0.85183 0.67344,2.18371 0,2.85714 -0.96349,0.96349 -4.7508,-0.96349 -5.71429,0 -0.67343,0.67344 0.67344,2.18371 0,2.85714 -0.67343,0.67344 -2.1837,-0.67343 -2.85714,0 -0.28571,0.28572 -0.28571,8.28572 0,8.57143 0.96349,0.96349 4.7508,-0.96349 5.71429,0 0.67343,0.67344 0.67343,2.18371 0,2.85715 -0.67344,0.67343 -1.90476,0 -2.85715,0 -0.95238,0 -1.90476,0 -2.85714,0 -0.95238,0 -2.85714,0.95238 -2.85714,0 0,-0.95239 1.90476,0 2.85714,0 0.95238,0 2.85714,-0.95239 2.85714,0 0,0.95238 -1.90476,0 -2.85714,0 -2.85714,0 -5.71428,0 -8.57143,0 -6.66666,0 -13.33333,0 -20,0 -5.71428,0 -11.42857,0 -17.14285,0 -0.95239,0 -2.18371,-0.67344 -2.85715,0 -0.67343,0.67343 0.67344,2.1837 0,2.85714 -0.67343,0.67343 -1.90476,0 -2.85714,0 -0.95238,0 -1.90476,0 -2.85714,0 -0.95238,0 -2.85715,0.95238 -2.85715,0 0,-0.95238 2.85715,-0.95238 2.85715,0 0,1.34687 -1.55049,2.53048 -2.85715,2.85714 -2.77183,0.69296 -5.71428,0 -8.57142,0 -0.95239,0 -2.18371,-0.67343 -2.85715,0 -0.67343,0.67344 0.67344,2.18371 0,2.85714 -0.67343,0.67344 -1.90476,0 -2.85714,0 -0.95238,0 -1.90476,0 -2.85714,0 -1.90993,0 -3.80436,0 -5.71429,0 -0.95238,0 -2.85714,0.95238 -2.85714,0 0,-0.95238 3.80952,0 2.85714,0 -1.90476,0 -3.80952,0 -5.71428,0 -0.95239,0 -1.90477,0 -2.85715,0 -0.95238,0 -2.0053,0.42592 -2.85714,0 -4.96701,-2.4835 -9.52381,-5.71428 -14.28571,-8.57142 z"
       id="path2989"
       inkscape:connector-curvature="0" />
    <path
       style="fill:#008000;stroke:#000000;stroke-width:1px;stroke-linecap:butt;stroke-linejoin:miter;stroke-opacity:1"
       d="m 328.57143,835.21933 c 12.19047,-9.14286 6.66667,-8.57143 14.28571,-8.57143 0.95238,0 2.18371,0.67343 2.85715,0 5.91153,-5.91153 -9.03361,0.23108 2.85714,-5.71429 0.85183,-0.42592 2.00531,0.42592 2.85714,0 1.20468,-0.60234 1.65247,-2.2548 2.85714,-2.85714 1.70368,-0.85184 4.01062,0.85183 5.71429,0 1.20468,-0.60234 1.65247,-2.25481 2.85714,-2.85714 0.85184,-0.42592 2.00531,0.42591 2.85715,0 1.20467,-0.60234 1.65246,-2.25481 2.85714,-2.85715 0.85183,-0.42592 2.00531,0.42592 2.85714,0 1.20468,-0.60234 1.65247,-2.2548 2.85714,-2.85714 1.70368,-0.85184 4.36742,1.34687 5.71429,0 0.67344,-0.67344 -0.85184,-2.43123 0,-2.85714 1.70367,-0.85184 4.01061,0.85183 5.71429,0 0.85183,-0.42592 -0.67344,-2.18371 0,-2.85715 0.67343,-0.67343 2.0053,0.42592 2.85714,0 1.20468,-0.60233 1.65246,-2.2548 2.85714,-2.85714 0.85184,-0.42592 1.90476,0 2.85714,0 0.95239,-0.95238 1.65247,-2.2548 2.85715,-2.85714 0.85183,-0.42592 2.1837,0.67343 2.85714,0 0.67344,-0.67344 -0.67344,-2.18371 0,-2.85714 0.67344,-0.67344 2.00531,0.42591 2.85714,0 1.20468,-0.60234 1.90476,-1.90477 2.85715,-2.85715 0.95238,-0.95238 2.2548,-1.65246 2.85714,-2.85714 0.42592,-0.85184 -0.67344,-2.18371 0,-2.85714 0.67343,-0.67344 2.18371,0.67343 2.85714,0 5.91153,-5.91153 -9.0336,0.23108 2.85714,-5.71429 0.85184,-0.42592 2.00531,0.42592 2.85715,0 2.40935,-1.20468 3.30493,-4.50961 5.71428,-5.71428 0.85184,-0.42592 2.18371,0.67343 2.85715,0 0.67343,-0.67344 -0.67344,-2.18371 0,-2.85715 0.67343,-0.67343 2.0053,0.42592 2.85714,0 0.54691,-0.27346 11.15511,-10.88165 11.42857,-11.42857 0.42592,-0.85183 -0.85184,-2.43122 0,-2.85714 1.70367,-0.85184 4.01061,0.85183 5.71429,0 0.85183,-0.42592 -0.67344,-2.18371 0,-2.85714 0.67343,-0.67344 2.1837,0.67343 2.85714,0 0.67343,-0.67344 -0.67344,-2.18371 0,-2.85715 0.67343,-0.67343 1.90476,0 2.85714,0 0,-0.95238 -0.67343,-2.18371 0,-2.85714 0.67344,-0.67344 2.18371,0.67343 2.85714,0 0.67344,-0.67344 -0.67343,-2.18371 0,-2.85714 0.67344,-0.67344 2.18371,0.67343 2.85715,0 0.67343,-0.67344 0,-1.90477 0,-2.85715 0.95238,0 2.1837,0.67344 2.85714,0 0.67344,-0.67343 -0.67344,-2.1837 0,-2.85714 0.96349,-0.96349 4.7508,0.96349 5.71429,0 0.67343,-0.67343 -0.67344,-2.18371 0,-2.85714 0.67343,-0.67344 2.1837,0.67343 2.85714,0 0.67343,-0.67344 -0.67344,-2.18371 0,-2.85714 0.67343,-0.67344 2.18371,0.67343 2.85714,0 0.67344,-0.67344 -0.67343,-2.18371 0,-2.85715 0.67344,-0.67343 2.18371,0.67344 2.85714,0 0.67344,-0.67343 -0.67343,-2.18371 0,-2.85714 0.67344,-0.67344 2.18371,0.67343 2.85715,0 0.96349,-0.96349 -0.96349,-4.7508 0,-5.71429 0.67343,-0.67343 2.1837,0.67344 2.85714,0 0.67344,-0.67343 0,-1.90476 0,-2.85714 0,-4.7619 0,-9.52381 0,-14.28571 0,-1.34714 -0.12949,-14.15623 0,-14.28572 0.67344,-0.67343 2.18371,0.67344 2.85714,0 0.68752,-0.68751 -0.68751,-10.74105 0,-11.42857 1.34687,-1.34687 4.36742,1.34687 5.71429,0 0.67343,-0.67343 -0.67344,-2.18371 0,-2.85714 0.67343,-0.67344 2.18371,0.67343 2.85714,0 0.28572,-0.28572 0.28572,-8.28572 0,-8.57143 -0.67343,-0.67344 -1.90476,0 -2.85714,0 -0.95238,0 -1.90476,0 -2.85714,0 -6.66667,0 -13.33334,0 -20,0 -1.90477,0 -3.8664,-0.46197 -5.71429,0 -2.92177,0.73044 -5.64966,2.1267 -8.57143,2.85714 -1.17304,0.29326 -5.36795,-0.34633 -5.71428,0 -0.67344,0.67344 0.67343,2.18371 0,2.85715 -0.67344,0.67343 -2.18371,-0.67344 -2.85715,0 -0.67343,0.67343 0.42592,2.0053 0,2.85714 -0.60234,1.20468 -2.2548,1.65246 -2.85714,2.85714 -0.42592,0.85184 0.67344,2.18371 0,2.85714 -0.67344,0.67344 -2.18371,-0.67343 -2.85714,0 -1.34687,1.34687 1.34687,4.36742 0,5.71429 -0.67344,0.67343 -2.18371,-0.67344 -2.85715,0 -1.34687,1.34687 1.70368,4.86245 0,5.71429 -1.70367,0.85183 -4.01061,-0.85184 -5.71428,0 -0.85184,0.42591 0.67343,2.1837 0,2.85714 -0.67344,0.67343 -2.18371,-0.67344 -2.85714,0 -1.34687,1.34687 1.34687,4.36741 0,5.71428 -0.67344,0.67344 -2.18371,-0.67343 -2.85715,0 -0.67343,0.67344 0.42592,2.00531 0,2.85715 -0.60234,1.20467 -2.2548,1.65246 -2.85714,2.85714 -0.42592,0.85184 0.67344,2.18371 0,2.85714 -0.67344,0.67344 -2.00531,-0.42592 -2.85714,0 -1.32308,0.66154 -9.74816,9.74816 -11.42857,11.42857 -1.50419,1.50419 -7.80846,7.04548 -8.57143,8.57143 -0.42592,0.85184 0.67343,2.18371 0,2.85715 -0.67344,0.67343 -2.00531,-0.42592 -2.85715,0 -11.89074,5.94537 3.05439,-0.19725 -2.85714,5.71428 -0.67343,0.67344 -2.00531,-0.42592 -2.85714,0 -1.20468,0.60234 -1.65247,2.25481 -2.85714,2.85714 -0.85184,0.42592 -2.18371,-0.67343 -2.85715,0 -0.67343,0.67344 0.67344,2.18371 0,2.85715 -0.67343,0.67343 -2.0053,-0.42592 -2.85714,0 -1.20468,0.60234 -1.65247,2.2548 -2.85714,2.85714 -0.85184,0.42592 -2.18371,-0.67344 -2.85715,0 -1.34687,1.34687 1.34687,4.36742 0,5.71429 -0.67343,0.67343 -2.1837,-0.67344 -2.85714,0 -5.91153,5.91153 9.0336,-0.23109 -2.85714,5.71428 -0.85184,0.42592 -2.18371,-0.67343 -2.85714,0 -0.67344,0.67344 0.67343,2.18371 0,2.85714 -0.67344,0.67344 -2.18371,-0.67343 -2.85715,0 -0.67343,0.67344 0.67344,2.18371 0,2.85715 -0.67343,0.67343 -2.0053,-0.42592 -2.85714,0 -3.42857,1.71428 -5.14286,6.85714 -8.57143,8.57143 -0.85183,0.42591 -2.00531,-0.42592 -2.85714,0 -1.20468,0.60233 -1.65247,2.2548 -2.85714,2.85714 -0.85184,0.42592 -2.18371,-0.67344 -2.85715,0 -0.67343,0.67343 0.67344,2.18371 0,2.85714 -0.67343,0.67344 -2.1837,-0.67343 -2.85714,0 -0.67344,0.67344 0.67344,2.18371 0,2.85714 -0.67344,0.67344 -2.18371,-0.67343 -2.85714,0 -0.67344,0.67344 0.67343,2.18371 0,2.85715 -0.67344,0.67343 -2.00531,-0.42592 -2.85715,0 -1.20467,0.60234 -1.65246,2.2548 -2.85714,2.85714 -1.5401,0.77005 -4.17419,-0.77005 -5.71428,0 -1.20468,0.60234 -1.65247,2.2548 -2.85715,2.85714 -0.85183,0.42592 -2.1837,-0.67343 -2.85714,0 -0.67344,0.67344 0.67344,2.18371 0,2.85715 -0.67344,0.67343 -2.18371,-0.67344 -2.85714,0 -0.67344,0.67343 0.67343,2.1837 0,2.85714 -0.96349,0.96349 -4.7508,-0.96349 -5.71429,0 -0.67343,0.67343 0,1.90476 0,2.85714 -0.95238,0 -2.18371,-0.67343 -2.85714,0 -1.34687,1.34687 1.34687,4.36742 0,5.71429 -0.67344,0.67343 -2.18371,-0.67344 -2.85714,0 -1.34687,1.34687 1.34687,4.36741 0,5.71428 -0.67344,0.67344 -2.18371,-0.67343 -2.85715,0 -0.67343,0.67344 0.95238,2.85715 0,2.85715 -1.90476,0 1.34687,-4.36742 0,-5.71429 -0.67343,-0.67344 -2.1837,0.67343 -2.85714,0 -1.34687,-1.34687 0.85184,-4.01062 0,-5.71429 -0.60234,-1.20467 -2.2548,-1.65246 -2.85714,-2.85714 -0.85184,-1.70367 1.34687,-4.36741 0,-5.71428 -0.67344,-0.67344 -2.18371,0.67343 -2.85715,0 -0.96349,-0.96349 0.96349,-4.7508 0,-5.71429 -0.67343,-0.67344 -2.1837,0.67343 -2.85714,0 -1.34687,-1.34687 0.85184,-4.01062 0,-5.71429 -0.60234,-1.20467 -2.2548,-1.65246 -2.85714,-2.85714 -0.42592,-0.85183 0.67343,-2.18371 0,-2.85714 -0.67344,-0.67344 -2.18371,0.67343 -2.85714,0 -1.34687,-1.34687 0.85183,-4.01062 0,-5.71429 -0.60234,-1.20467 -2.25481,-1.65246 -2.85715,-2.85714 -0.85183,-1.70367 1.34687,-4.36742 0,-5.71429 -0.67343,-0.67343 -2.1837,0.67344 -2.85714,0 -0.67344,-0.67343 0.67344,-2.1837 0,-2.85714 -0.67344,-0.67343 -2.18371,0.67344 -2.85714,0 -1.34687,-1.34687 1.34687,-4.36741 0,-5.71428 -0.67344,-0.67344 -2.18371,0.67343 -2.85715,0 -0.67343,-0.67344 0.42592,-2.00531 0,-2.85715 -0.60233,-1.20467 -2.2548,-1.65246 -2.85714,-2.85714 -0.42592,-0.85184 0.67344,-2.18371 0,-2.85714 -0.67343,-0.67344 -2.18371,0.67343 -2.85714,0 -1.34687,-1.34687 1.34687,-4.36742 0,-5.71429 -0.67344,-0.67343 -2.18371,0.67344 -2.85714,0 -1.34687,-1.34687 1.34687,-4.36741 0,-5.71428 -0.67344,-0.67344 -2.18371,0.67343 -2.85715,0 -1.34687,-1.34687 1.34687,-4.36742 0,-5.71429 -0.67343,-0.67344 -2.1837,0.67343 -2.85714,0 -0.96349,-0.96349 0.96349,-4.7508 0,-5.71429 -0.67344,-0.67343 -2.18371,0.67344 -2.85714,0 -0.96256,-0.96256 0.96256,-4.75172 0,-5.71428 -0.67344,-0.67344 -2.18371,0.67343 -2.85715,0 -1.34687,-1.34687 0.85184,-4.01062 0,-5.71429 -0.60233,-1.20467 -2.2548,-1.65246 -2.85714,-2.85714 -0.85183,-1.70367 1.34687,-4.36742 0,-5.71429 -1.50585,-1.50584 -4.533,-1.08521 -5.71428,-2.85714 -1.05658,-1.58486 0.60233,-3.90727 0,-5.71428 -0.42592,-1.27776 -2.25481,-1.65247 -2.85715,-2.85715 -0.90124,-1.80248 0.90124,-12.48323 0,-14.28571 -0.60234,-1.20468 -2.2548,-1.65247 -2.85714,-2.85714 -0.42592,-0.85184 0.67344,-2.18371 0,-2.85715 -0.67344,-0.67343 -2.18371,0.67344 -2.85714,0 -1.34687,-1.34687 0.60234,-3.90727 0,-5.71428 -0.67344,-2.02031 -2.18371,-3.69398 -2.85715,-5.71429 -0.30117,-0.90351 0.42592,-2.00531 0,-2.85714 -0.60233,-1.20468 -2.43122,-1.57939 -2.85714,-2.85714 -0.60234,-1.80702 0.60234,-3.90727 0,-5.71429 -0.42592,-1.27775 -2.2548,-1.65247 -2.85714,-2.85714 -0.42592,-0.85184 0.42592,-2.00531 0,-2.85715 -0.60234,-1.20467 -2.25481,-1.65246 -2.85714,-2.85714 -0.42592,-0.85183 0,-1.90476 0,-2.85714 -0.95239,-0.95238 -2.25481,-1.65247 -2.85715,-2.85714 -0.85183,-1.70368 1.34687,-4.36742 0,-5.71429 -0.67343,-0.67344 -1.90476,0 -2.85714,0 0,-0.95238 0.42592,-2.00531 0,-2.85714 -0.60234,-1.20468 -2.2548,-1.65247 -2.85714,-2.85715 -0.42592,-0.85183 0.42591,-2.0053 0,-2.85714 -0.60234,-1.20468 -2.25481,-1.65246 -2.85715,-2.85714 -0.42591,-0.85184 0.42592,-2.00531 0,-2.85714 -1.20467,-2.40936 -4.5096,-3.30494 -5.71428,-5.71429 -0.42592,-0.85184 0.42592,-2.00531 0,-2.85714 -1.20468,-2.40936 -4.50961,-3.30493 -5.71429,-5.71429 -0.42591,-0.85183 0.67344,-2.18371 0,-2.85714 -0.67343,-0.67344 -2.1837,0.67343 -2.85714,0 -0.67344,-0.67344 0.67344,-2.18371 0,-2.85714 -0.92698,-0.92698 -4.78731,0.92697 -5.71429,0 -0.67343,-0.67344 0.67344,-2.18371 0,-2.85715 -0.67343,-0.67343 -2.1837,0.67344 -2.85714,0 -0.67343,-0.67343 0.67344,-2.18371 0,-2.85714 -0.67343,-0.67344 -2.18371,0.67343 -2.85714,0 -0.67344,-0.67344 0.67343,-2.18371 0,-2.85714 -0.67344,-0.67344 -1.90476,0 -2.85714,0 -0.95239,0 -2.18371,-0.67344 -2.85715,0 -1.34687,1.34687 0.85184,4.01061 0,5.71428 -0.60234,1.20468 -2.2548,1.65247 -2.85714,2.85715 -0.45525,0.91049 0,11.73222 0,14.28571 0,5.71429 0,11.42857 0,17.14286 0,1.90476 0,3.80952 0,5.71428 0,1.90476 -0.46197,3.8664 0,5.71429 0.5165,2.066 2.18371,3.69398 2.85714,5.71428 0.85715,2.57143 -0.85714,6 0,8.57143 0.42592,1.27776 2.43123,1.57939 2.85715,2.85715 0.60233,1.80701 -0.60234,3.90727 0,5.71428 0.42591,1.27775 2.2548,1.65247 2.85714,2.85714 0.42592,0.85184 -0.42592,2.00531 0,2.85715 0.60234,1.20467 2.2548,1.65246 2.85714,2.85714 1.14286,2.28571 -1.14286,6.28571 0,8.57143 0.60234,1.20468 2.25481,1.65246 2.85714,2.85714 0.7625,1.525 -0.7625,4.18929 0,5.71429 6.53801,13.07602 -1.1842,-12.12405 5.71429,8.57143 0.60234,1.80701 -0.85184,4.01061 0,5.71428 0.60234,1.20468 2.11003,1.73648 2.85714,2.85714 1.18129,1.77193 1.3513,4.20844 2.85715,5.71429 0.67343,0.67343 2.1837,-0.67344 2.85714,0 1.34687,1.34687 -0.85184,4.01061 0,5.71429 0.60234,1.20467 2.2548,1.65246 2.85714,2.85714 0.42592,0.85183 -0.42592,2.00531 0,2.85714 0.60234,1.20468 2.25481,1.65247 2.85714,2.85714 0.89789,1.79578 -0.89788,9.6328 0,11.42858 1.20468,2.40935 4.50961,3.30493 5.71429,5.71428 0.42592,0.85184 0,1.90476 0,2.85714 0,1.90477 -0.60234,3.90727 0,5.71429 0.42592,1.27775 2.2548,1.65247 2.85714,2.85714 0.42592,0.85184 -0.67343,2.18371 0,2.85715 0.67344,0.67343 2.18371,-0.67344 2.85715,0 0.96349,0.96349 -0.96349,4.75079 0,5.71428 0.67343,0.67344 2.1837,-0.67343 2.85714,0 1.42857,1.42857 -1.42857,7.14286 0,8.57143 0.67343,0.67343 2.18371,-0.67344 2.85714,0 0.58411,0.5841 -0.56642,7.43859 0,8.57143 0.60234,1.20468 2.25481,1.65246 2.85714,2.85714 0.36936,0.73872 0,15.11771 0,17.14286 0,7.61905 -0.95238,-0.95238 2.85715,2.85714 1.42857,1.42857 -1.42857,7.14286 0,8.57143 0.67343,0.67343 2.1837,-0.67344 2.85714,0 1.02633,1.02633 -0.92422,9.58014 0,11.42857 0.42592,0.85184 2.18371,-0.67343 2.85714,0 0.67344,0.67344 -0.67343,2.18371 0,2.85714 0.67344,0.67344 2.18371,-0.67343 2.85715,0 0.67343,0.67344 -0.42592,2.00531 0,2.85715 0.60233,1.20467 2.2548,1.65246 2.85714,2.85714 0.42592,0.85184 -0.67344,2.18371 0,2.85714 0.67343,0.67344 2.18371,-0.67343 2.85714,0 0.67344,0.67344 -0.67343,2.18371 0,2.85715 1.34687,1.34687 4.36742,-1.34687 5.71429,0 0.67343,0.67343 -0.67344,2.1837 0,2.85714 1.34687,1.34687 4.01061,-0.85184 5.71428,0 1.20468,0.60234 1.65247,2.2548 2.85715,2.85714 1.13283,0.56642 7.98732,-0.5841 8.57142,0 0.67344,0.67344 -0.67343,2.18371 0,2.85714 0.67344,0.67344 1.90477,0 2.85715,0 7.61904,0 15.23809,0 22.85714,0 1.98726,0 13.25248,0.51662 14.28571,0 4.96702,-2.4835 9.52381,-5.71428 14.28572,-8.57142 z"
       id="path2991"
       inkscape:connector-curvature="0" />
  </g>
</svg>
