<?xml version="1.0" encoding="UTF-8" standalone="no"?>
<!-- Created with Inkscape (http://www.inkscape.org/) -->

<svg
   xmlns:dc="http://purl.org/dc/elements/1.1/"
   xmlns:cc="http://creativecommons.org/ns#"
   xmlns:rdf="http://www.w3.org/1999/02/22-rdf-syntax-ns#"
   xmlns:svg="http://www.w3.org/2000/svg"
   xmlns="http://www.w3.org/2000/svg"
   version="1.1"
   width="16"
   height="16"
   id="svg2985">
  <defs
     id="defs2987" />
  <metadata
     id="metadata2990">
    <rdf:RDF>
      <cc:Work
         rdf:about="">
        <dc:format>image/svg+xml</dc:format>
        <dc:type
           rdf:resource="http://purl.org/dc/dcmitype/StillImage" />
        <dc:title></dc:title>
      </cc:Work>
    </rdf:RDF>
  </metadata>
  <g
     id="layer1">
    <path
       d="m 7.9287129,15.594554 c -0.270297,0 -0.540594,0 -0.8108911,0 -0.036882,0 -0.1960592,0.0097 -0.2252475,0 -0.147055,-0.04902 -0.037762,-0.05885 -0.2252475,-0.0901 -0.044437,-0.0074 -0.090974,0.0088 -0.1351485,0 -0.051488,-0.0103 -0.2025039,-0.121502 -0.2252476,-0.135148 -0.028793,-0.01728 -0.061306,-0.02777 -0.090099,-0.04505 -0.046427,-0.02786 -0.088721,-0.06224 -0.1351485,-0.0901 -0.028793,-0.01728 -0.061306,-0.02777 -0.090099,-0.04505 -0.046427,-0.02786 -0.088722,-0.06224 -0.1351485,-0.0901 -0.028793,-0.01728 -0.061306,-0.02777 -0.090099,-0.04505 -0.046427,-0.02786 -0.088722,-0.06224 -0.1351485,-0.0901 -0.028793,-0.01727 -0.063237,-0.0249 -0.090099,-0.04505 -0.033978,-0.02548 -0.056121,-0.06462 -0.090099,-0.0901 -0.026862,-0.02015 -0.060066,-0.03003 -0.090099,-0.04505 -0.04505,-0.03003 -0.09287,-0.05628 -0.1351485,-0.0901 -0.033166,-0.02653 -0.056121,-0.06461 -0.090099,-0.0901 -0.026862,-0.02015 -0.063237,-0.0249 -0.090099,-0.04505 -0.033979,-0.02548 -0.060066,-0.06007 -0.090099,-0.0901 -0.060066,-0.06007 -0.120132,-0.120132 -0.180198,-0.180198 -0.030033,-0.03003 -0.056933,-0.06357 -0.090099,-0.0901 -0.042278,-0.03382 -0.09287,-0.05628 -0.1351486,-0.0901 -0.033166,-0.02653 -0.060066,-0.06007 -0.090099,-0.0901 -0.090099,-0.0901 -0.180198,-0.180198 -0.270297,-0.270297 -0.030033,-0.03003 -0.056121,-0.06461 -0.090099,-0.0901 -0.026862,-0.02015 -0.063237,-0.0249 -0.090099,-0.04505 C 3.8937649,13.525645 3.85475,13.38376 3.7391089,13.29703 c -0.026862,-0.02015 -0.063237,-0.0249 -0.090099,-0.04505 -0.033978,-0.02548 -0.060066,-0.06007 -0.090099,-0.0901 -0.030033,-0.03003 -0.064615,-0.05612 -0.090099,-0.0901 -0.020147,-0.02686 -0.024903,-0.06324 -0.045049,-0.0901 -0.042059,-0.05608 -0.1738466,-0.173846 -0.2252475,-0.225247 -0.015017,-0.01502 -0.03327,-0.02738 -0.04505,-0.04505 -0.018626,-0.02794 -0.026424,-0.06216 -0.04505,-0.0901 -0.02356,-0.03534 -0.071104,-0.05211 -0.090099,-0.0901 -0.013431,-0.02686 0.013431,-0.06324 0,-0.0901 -0.011635,-0.02327 -0.2099663,-0.209966 -0.2252476,-0.225247 -0.015016,-0.01502 -0.035552,-0.02605 -0.04505,-0.04505 -0.00672,-0.01343 0.010618,-0.03443 0,-0.04505 -0.023743,-0.02374 -0.066356,-0.02131 -0.090099,-0.04505 -0.010618,-0.01062 0.00672,-0.03162 0,-0.04505 -0.1030869,-0.206174 0.018672,0.191163 -0.090099,-0.135149 -0.00475,-0.01425 0.00672,-0.03162 0,-0.04505 -0.0095,-0.019 -0.03327,-0.02738 -0.045049,-0.04505 -0.018626,-0.02794 -0.021306,-0.06636 -0.04505,-0.0901 -0.023743,-0.02374 -0.066356,-0.02131 -0.090099,-0.04505 -0.00289,-0.0029 -0.084505,-0.171806 -0.090099,-0.180198 -0.02356,-0.03534 -0.066539,-0.05476 -0.090099,-0.0901 -0.018626,-0.02794 -0.026424,-0.06216 -0.04505,-0.0901 -0.01249,-0.01873 -0.1640858,-0.172141 -0.1801981,-0.180198 -0.013431,-0.0067 -0.034431,0.01062 -0.045049,0 -0.010618,-0.01062 0.00672,-0.03162 0,-0.04505 -0.1494104,-0.14941 0.021237,0.04247 -0.045049,-0.0901 -0.018995,-0.03799 -0.066539,-0.05476 -0.090099,-0.0901 -0.018626,-0.02794 -0.021306,-0.06636 -0.045049,-0.0901 -0.023743,-0.02374 -0.066356,-0.02131 -0.090099,-0.04505 -0.00289,-0.0029 -0.084505,-0.171806 -0.090099,-0.180198 -0.01178,-0.01767 -0.03327,-0.02738 -0.045049,-0.04505 -0.018626,-0.02794 -0.026424,-0.06216 -0.045049,-0.0901 -0.01178,-0.01767 -0.030033,-0.03003 -0.045049,-0.04505 -0.015016,-0.03003 -0.026424,-0.06216 -0.04505,-0.0901 -0.054952,-0.08243 -0.057435,-0.0045 -0.090099,-0.135148 -0.00728,-0.02914 0.013431,-0.06324 0,-0.0901 -0.018995,-0.03799 -0.064615,-0.05612 -0.090099,-0.0901 -0.045278,-0.060371 -0.064141,-0.1603523 -0.090099,-0.2252477 -0.012471,-0.031176 -0.027774,-0.061306 -0.045049,-0.090099 -0.027856,-0.046427 -0.069991,-0.084878 -0.090099,-0.1351486 -0.011154,-0.027885 0.0134312,-0.063237 0,-0.090099 C 0.9720962,9.4298117 0.9264755,9.4116797 0.9009917,9.3777017 0.8487993,9.3081117 0.8158553,9.1824228 0.76584318,9.1074047 c -0.0147904,-0.022186 -0.0753086,-0.067913 -0.090099,-0.090099 -0.1517209,-0.2275814 -3.4791e-4,-0.00104 -0.0450495,-0.1351485 -0.10877077,-0.3263124 0.0129879,0.071025 -0.090099,-0.1351486 -0.006716,-0.013431 0.006716,-0.031618 0,-0.045049 -0.009497,-0.018994 -0.0355522,-0.026055 -0.0450495,-0.045049 -0.0134312,-0.026862 0.0134312,-0.063237 0,-0.090099 -0.009497,-0.018994 -0.0355522,-0.026055 -0.0450495,-0.04505 -0.0180198,-0.03604 0.0180198,-0.099109 0,-0.1351485 -0.009497,-0.018994 -0.0355522,-0.026055 -0.0450495,-0.045049 -0.008931,-0.017862 0.00921,-0.1259388 0,-0.1351485 -0.0106183,-0.010618 -0.0344312,0.010618 -0.0450495,0 -0.001449,-0.00145 0,-0.1242228 0,-0.1351485 0,-0.1201321 0.0150165,0.015017 -0.0450495,-0.045049 -0.0106183,-0.010618 0,-0.030033 0,-0.04505 0,-0.075083 0,-0.150165 0,-0.2252475 0,-0.015017 0.0106183,-0.034431 0,-0.04505 -0.0106183,-0.010618 -0.0344312,0.010618 -0.0450495,0 -0.002042,-0.00204 0,-0.2040068 0,-0.2252475 0,-0.015016 0.0106183,-0.034431 0,-0.04505 -0.0106183,-0.010618 -0.0344312,0.010618 -0.0450495,0 -0.004641,-0.00464 0.003744,-0.214017 0,-0.2252475 -0.006716,-0.020147 -0.0355522,-0.026055 -0.0450495,-0.04505 -0.006716,-0.013431 0,-0.030033 0,-0.04505 0,-0.030033 0,-0.060066 0,-0.090099 0,-0.075082 0,-0.150165 0,-0.2252475 0,-0.2853135 0,-0.5706271 0,-0.8559406 0,-0.180198 0,-0.360396 0,-0.5405941 0,-0.030033 0,-0.060066 0,-0.090099 0,-0.015016 -0.0150165,-0.04505 0,-0.04505 0.0150165,0 -0.0106183,0.034431 0,0.04505 0.0106183,0.010618 0.0344312,-0.010618 0.0450495,0 0.0106183,0.010618 -0.006716,0.031618 0,0.04505 0.009497,0.018995 0.0332696,0.02738 0.0450495,0.045049 0.0186257,0.027939 0.0264238,0.062161 0.0450495,0.090099 0.0117799,0.01767 0.030033,0.030033 0.0450495,0.04505 0.051401,0.051401 0.18318851,0.1691688 0.22524753,0.2252475 0.0402935,0.053725 0.0528477,0.124321 0.090099,0.180198 0.0117799,0.01767 0.0332696,0.02738 0.0450495,0.045049 0.12808808,0.1921321 -0.0597037,-0.014654 0.13514851,0.180198 0.10329109,0.1032911 -0.0189945,-0.028492 0.090099,0.1351485 0.0289281,0.043392 0.0611709,0.046707 0.090099,0.090099 0.018626,0.027939 0.026424,0.062161 0.04505,0.090099 0.019731,0.029596 0.127021,0.1107659 0.1351485,0.1351485 0.0095,0.028492 -0.016659,0.06511 0,0.090099 0.018626,0.027938 0.066356,0.021306 0.090099,0.04505 0.010618,0.010618 -0.00833,0.032555 0,0.045049 0.2092981,0.3139473 0.013176,-0.047811 0.1351485,0.1351485 0.018626,0.027938 0.024903,0.063237 0.045049,0.090099 0.025484,0.033978 0.066539,0.054759 0.090099,0.090099 0.00833,0.012494 -0.010618,0.034431 0,0.04505 0.023743,0.023743 0.066356,0.021306 0.090099,0.04505 0.023743,0.023743 0.026424,0.06216 0.04505,0.090099 0.02356,0.03534 0.060066,0.060066 0.090099,0.090099 0.060066,0.060066 0.120132,0.120132 0.180198,0.180198 0.030033,0.030033 0.064615,0.056121 0.090099,0.090099 0.020147,0.026862 0.024903,0.063237 0.04505,0.090099 0.075683,0.1009109 0.1946138,0.1693862 0.270297,0.2702971 0.020147,0.026862 0.024903,0.063237 0.045049,0.090099 0.025484,0.033978 0.064615,0.056121 0.090099,0.090099 0.020147,0.026862 0.024903,0.063237 0.045049,0.090099 0.075683,0.1009109 0.1946139,0.1693861 0.270297,0.270297 0.020147,0.026862 0.026424,0.06216 0.045049,0.090099 0.01178,0.01767 0.030033,0.030033 0.04505,0.045049 0.051401,0.051401 0.1831886,0.1691689 0.2252476,0.2252476 0.020147,0.026862 0.021306,0.066356 0.04505,0.090099 0.023743,0.023743 0.066356,0.021306 0.090099,0.045049 0.2302201,0.23022 -0.1888916,-0.062832 0.1351485,0.180198 0.026862,0.020147 0.066356,0.021306 0.090099,0.045049 0.023743,0.023743 0.021306,0.066356 0.045049,0.090099 0.038285,0.038285 0.096864,0.051814 0.1351485,0.090099 0.038285,0.038285 0.056276,0.09287 0.090099,0.1351485 0.039799,0.049749 0.096923,0.084181 0.1351486,0.1351486 0.032486,0.043314 0.051814,0.096864 0.090099,0.1351485 0.023743,0.023743 0.063237,0.024903 0.090099,0.045049 0.050968,0.038226 0.090099,0.090099 0.1351485,0.1351483 0.030033,0.03003 0.060066,0.06007 0.090099,0.0901 0.015017,0.01502 0.035552,0.02606 0.04505,0.04505 0.00672,0.01343 -0.010618,0.03443 0,0.04505 0.010618,0.01062 0.031618,-0.0067 0.04505,0 0.018995,0.0095 0.02806,0.03231 0.04505,0.04505 0.043314,0.03248 0.086722,0.06588 0.1351485,0.0901 0.042473,0.02124 0.091059,0.02741 0.1351486,0.04505 0.092077,0.03683 0.1815621,0.09078 0.270297,0.135149 0.030033,0.01502 0.060066,0.03003 0.090099,0.04505 0.030033,0.01502 0.066356,0.02131 0.090099,0.04505 0.023743,0.02374 0.021306,0.06636 0.04505,0.0901 0.064243,0.06424 0.1548758,0.03732 0.2252475,0.0901 0.026862,0.02015 0.021306,0.06636 0.04505,0.0901 0.047486,0.04749 0.1264733,0.0498 0.180198,0.0901 0.033978,0.02548 0.056121,0.06462 0.090099,0.0901 0.026862,0.02015 0.062161,0.02642 0.090099,0.04505 0.01767,0.01178 0.030033,0.03003 0.04505,0.04505 0.030033,0.01502 0.062161,0.02642 0.090099,0.04505 0.041009,0.02734 0.095219,0.115184 0.1351485,0.135149 0.013431,0.0067 0.031618,-0.0067 0.04505,0 0.018995,0.0095 0.030033,0.03003 0.04505,0.04505 0.015016,0.01502 0.03327,0.02738 0.04505,0.04505 0.018626,0.02794 0.026424,0.06216 0.045049,0.0901 0.01178,0.01767 0.030033,0.03003 0.04505,0.04505 0.030033,0.03003 0.060066,0.06007 0.090099,0.0901 0.075083,0.07508 0.150165,0.150166 0.2252475,0.225248 0.015017,0.01502 0.030033,0.03003 0.04505,0.04505 0.015016,0.01502 0.035552,0.02605 0.04505,0.04505 0.055477,0.110955 -0.1307668,-0.04067 0.04505,0.135149 0.010618,0.01062 0.034431,-0.01062 0.04505,0 0.1758163,0.175816 -0.010428,0.02419 0.045049,0.135148 0.0095,0.01899 0.035552,0.02605 0.04505,0.04505 0.00672,0.01343 -0.00475,0.0308 0,0.04505 0.015016,0.03003 0.030033,0.06007 0.04505,0.0901 0,0.01502 -0.00475,0.0308 0,0.04505 0.1087708,0.326312 -0.012988,-0.07103 0.090099,0.135148 0.00672,0.01343 -0.00672,0.03162 0,0.04505 0.0095,0.01899 0.035552,0.02605 0.04505,0.04505 0.013431,0.02686 -0.021236,0.06886 0,0.0901 0.010618,0.01062 0.034431,-0.01062 0.04505,0 0.021236,0.02124 -0.021237,0.06886 0,0.0901 0.060066,0.06007 0.04505,-0.07508 0.04505,0.04505 0,0.01502 0.015016,0.04505 0,0.04505 -0.00446,0 0.00461,-0.161752 0,-0.180198 -0.023034,-0.09214 -0.060066,-0.180198 -0.090099,-0.270297 -0.1080132,-0.32404 0.023034,0.08062 -0.090099,-0.315346 C 6.9886335,12.078993 6.9316835,11.947244 6.892584,11.810396 6.875575,11.750866 6.862551,11.690264 6.847535,11.630198 6.825022,11.540148 6.763791,11.307363 6.757436,11.224752 c -0.00921,-0.119778 0.015877,-0.241317 0,-0.360396 -0.014448,-0.108362 -0.075651,-0.206983 -0.090099,-0.315346 -0.015877,-0.119078 0.00799,-0.24053 0,-0.360396 -0.00706,-0.105948 -0.035436,-0.2096002 -0.045049,-0.3153468 -7.993e-4,-0.00879 8.11e-4,-0.3567466 0,-0.3603961 C 6.604746,9.4339301 6.546655,9.3671856 6.532189,9.2876236 c -0.016117,-0.088646 0.016117,-0.1816513 0,-0.270297 C 6.517723,8.9377646 6.456556,8.871641 6.44209,8.792079 6.425973,8.703433 6.44957,8.6115698 6.44209,8.521782 6.4345,8.430756 6.404626,8.3425113 6.397041,8.251485 6.389561,8.161697 6.413158,8.0698337 6.397041,7.9811879 6.382575,7.9016259 6.321408,7.8355024 6.306942,7.7559404 c -8.782e-4,-0.00483 8.705e-4,-0.5310186 0,-0.540594 -0.00693,-0.076255 -0.038117,-0.1489926 -0.045049,-0.2252476 -0.00816,-0.089729 0,-0.180198 0,-0.270297 0,-0.075083 0,-0.150165 0,-0.2252475 0,-0.2252476 0,-0.4504951 0,-0.6757426 0,-0.3153465 0,-0.6306931 0,-0.9460396 0,-0.1051155 0,-0.210231 0,-0.3153466 0,-0.04505 -0.00741,-0.090712 0,-0.1351485 0.00781,-0.04684 0.035737,-0.088584 0.045049,-0.1351485 0.01178,-0.0589 -0.014568,-0.1219254 0,-0.180198 0.016288,-0.065151 0.073811,-0.1150473 0.090099,-0.180198 0.00728,-0.029136 -0.0095,-0.061607 0,-0.090099 0.00672,-0.020147 0.03327,-0.02738 0.045049,-0.04505 0.018626,-0.027938 0.030033,-0.060066 0.04505,-0.090099 0.030033,-0.060066 0.060066,-0.120132 0.090099,-0.180198 0.015016,-0.030033 0.024903,-0.063237 0.04505,-0.090099 C 6.673257,3.3632305 6.7515193,3.3189464 6.802487,3.2509895 6.893653,3.1294346 6.8017324,3.1771645 6.892586,3.025742 6.914438,2.989322 6.957201,2.969621 6.982685,2.935643 7.022978,2.881918 7.03249,2.8091697 7.072784,2.755445 7.098268,2.721467 7.139323,2.700686 7.162883,2.665346 c 0.016659,-0.024989 -0.013431,-0.063237 0,-0.090099 0.0095,-0.018994 0.035552,-0.026055 0.04505,-0.045049 0.00672,-0.013431 -0.00672,-0.031618 0,-0.04505 0.0095,-0.018994 0.035552,-0.026055 0.045049,-0.045049 0.00672,-0.013431 -0.00672,-0.031618 0,-0.04505 0.0095,-0.018995 0.035552,-0.026055 0.04505,-0.04505 0.013431,-0.026862 -0.013431,-0.063237 0,-0.090099 0.0095,-0.018995 0.035552,-0.026055 0.04505,-0.045049 0.013431,-0.026862 -0.021237,-0.068863 0,-0.090099 0.010618,-0.010618 0.034431,0.010618 0.04505,0 0.021236,-0.021237 -0.021237,-0.068863 0,-0.090099 C 7.508264,1.914521 7.373115,2.1698016 7.433181,1.989604 7.443799,1.957749 7.467612,1.93136 7.478231,1.899505 c 0.00475,-0.014246 -0.00672,-0.031618 0,-0.04505 0.0095,-0.018995 0.035552,-0.026055 0.04505,-0.045049 0.012219,-0.024439 -0.012327,-0.1678715 0,-0.180198 0.010618,-0.010618 0.034431,0.010618 0.04505,0 0.021236,-0.021237 -0.013431,-0.063237 0,-0.090099 C 7.587325,1.50112 7.639435,1.486999 7.65843,1.44901 7.66515,1.435579 7.65368,1.418206 7.65843,1.403961 7.669048,1.372106 7.695336,1.346437 7.70348,1.313862 7.71076,1.284726 7.69398,1.252255 7.70348,1.223763 7.716911,1.18347 7.780148,1.173958 7.793579,1.133664 c 0.0095,-0.028492 -0.0095,-0.061607 0,-0.090099 0.00672,-0.020147 0.035552,-0.026055 0.04505,-0.0450495 0.00672,-0.0134312 -0.00475,-0.0308036 0,-0.0450495 0.010618,-0.0318548 0.036906,-0.0575236 0.045049,-0.090099 0.00728,-0.0291363 -0.0095,-0.0616072 0,-0.090099 0.00672,-0.0201467 0.038334,-0.0249027 0.04505,-0.0450495 0,-0.20507818 -0.021236,-0.002576 0.04505,-0.13514852 0.013431,-0.0268623 -0.021236,-0.0688625 0,-0.090099 0.060066,-0.060066 0.04505,0.0750825 0.04505,-0.0450495 0,-0.0450495 0,-0.090099 0,-0.13514851 0,-0.0150165 -0.015016,-0.0450495 0,-0.0450495 0.015016,0 0,0.030033 0,0.0450495 0,0.0150165 0,0.030033 0,0.0450495 0,0.14501217 -0.010618,-0.0769043 0.045049,0.090099 0.013911,0.0417344 -0.014389,0.1820806 0,0.22524753 0.010618,0.0318548 0.030033,0.060066 0.04505,0.090099 0.015016,0.030033 0.026424,0.0621605 0.045049,0.090099 0.01178,0.0176699 0.038334,0.0249028 0.045049,0.0450495 0.018994,0.0569836 -0.014568,0.1219254 0,0.180198 0.00814,0.032575 0.032579,0.058923 0.04505,0.090099 0.017636,0.04409 0.027413,0.091059 0.045049,0.1351486 0.012471,0.031176 0.038464,0.057173 0.045049,0.090099 0.00883,0.044175 -0.00741,0.090712 0,0.1351485 0.015613,0.093681 0.071473,0.1771686 0.090099,0.270297 0.00589,0.02945 0,0.060066 0,0.090099 0,0.1051155 0,0.210231 0,0.3153466 0,0.030033 -0.00728,0.060963 0,0.090099 0.00814,0.032575 0.036906,0.057524 0.04505,0.090099 0.00728,0.029136 0,0.060066 0,0.090099 0,0.075083 0,0.150165 0,0.2252475 0,0.3453796 0,0.6907591 0,1.0361386 0,0.1201321 0,0.2402641 0,0.3603961 0,0.030033 0.00728,0.060963 0,0.090099 -0.00814,0.032575 -0.036906,0.057524 -0.04505,0.090099 -0.00886,0.035437 0,0.223449 0,0.270297 0,0.1801981 0,0.3603961 0,0.5405941 0,0.069579 0.010614,0.161565 0,0.2252475 -0.00781,0.04684 -0.038334,0.088139 -0.045049,0.1351485 -0.012742,0.089194 0,0.1801981 0,0.2702971 0,0.2252475 0,0.450495 0,0.6757426 0,0.1651815 0,0.330363 0,0.4955445 0,0.060066 -0.01178,0.1212985 0,0.180198 0.00931,0.046564 0.033532,0.08908 0.045049,0.1351486 0.016043,0.064173 -0.020142,0.1648202 0,0.2252475 0.00672,0.020147 0.038334,0.024903 0.04505,0.04505 0.0095,0.028492 0,0.060066 0,0.090099 0,0.075083 0,0.150165 0,0.2252475 0,0.030033 -0.00728,0.060963 0,0.090099 0.00814,0.032575 0.036906,0.057524 0.045049,0.090099 0.00728,0.029136 0,0.060066 0,0.090099 0,0.037724 -0.00856,0.1909889 0,0.2252475 0.00814,0.032575 0.036906,0.057524 0.045049,0.090099 0.00728,0.029136 0,0.060066 0,0.090099 0,0.075083 0,0.150165 0,0.2252475 0,0.045049 -0.00883,0.090974 0,0.1351485 0.00659,0.032926 0.036906,0.057524 0.04505,0.090099 0.014568,0.058273 -0.01178,0.1212984 0,0.180198 0.00931,0.046564 0.035737,0.088584 0.045049,0.1351485 0.00589,0.02945 0,0.060066 0,0.090099 0,0.045049 0,0.090099 0,0.1351485 0,0.120132 0,0.2402641 0,0.3603961 0,0.3603961 0,0.7207921 0,1.0811881 0,0.135148 0,0.270297 0,0.405445 0,0.02514 -0.00687,0.204626 0,0.225248 0.00672,0.02015 0.035552,0.02605 0.04505,0.04505 0.00582,0.01165 0,0.238366 0,0.270298 0,0.01502 -0.010618,0.03443 0,0.04505 0.010618,0.01062 0.030033,0 0.045049,0 0.015016,0 0.030033,0 0.045049,0 0.051657,0 0.1335317,0.01167 0.1801981,0 0.065151,-0.01629 0.1178454,-0.06516 0.180198,-0.0901 0.04409,-0.01764 0.091058,-0.02741 0.1351485,-0.04505 0.031176,-0.01247 0.058923,-0.03258 0.090099,-0.04505 0.227373,-0.09095 0.043086,-0.01102 0.3153466,-0.04505 0.061436,-0.0077 0.1187615,-0.03737 0.180198,-0.04505 0.059602,-0.0075 0.1205958,0.0075 0.1801988,0 0.08113,-0.01014 0.196211,-0.04071 0.270297,-0.0901 0.01767,-0.01178 0.02806,-0.03231 0.04505,-0.04505 0.07726,-0.05794 0.165796,-0.100928 0.225248,-0.180198 0.276485,-0.368646 -0.119093,0.13359 0.180198,-0.315346 0.05334,-0.08 0.116881,-0.152885 0.180198,-0.225248 0.12558,-0.14352 0.279865,-0.261925 0.405445,-0.405445 0.245114,-0.28013 0.129937,-0.178663 0.360396,-0.4955446 0.05655,-0.077762 0.121166,-0.1493493 0.180198,-0.2252476 0.0461,-0.059267 0.08571,-0.1236926 0.135149,-0.180198 0.05594,-0.063928 0.120132,-0.120132 0.180198,-0.180198 0.180198,-0.180198 0.360396,-0.360396 0.540594,-0.5405941 0.06007,-0.060066 0.120132,-0.120132 0.180198,-0.180198 0.06007,-0.060066 0.127133,-0.1138662 0.180198,-0.180198 0.06765,-0.084557 0.116508,-0.1827226 0.180198,-0.270297 0.05655,-0.077762 0.134155,-0.1408357 0.180198,-0.2252476 5.65e-4,-0.00104 0.177591,-0.5334239 0.180198,-0.540594 0.02764,-0.075998 0.04998,-0.1550359 0.0901,-0.2252476 0.100717,-0.1762552 0.0901,-0.020919 0.0901,-0.1351485 0,-0.015016 -0.0047,-0.030804 0,-0.045049 0.01062,-0.031855 0.03003,-0.060066 0.04505,-0.090099 0.01502,-0.030033 0.0249,-0.063237 0.04505,-0.090099 0.02548,-0.033979 0.06461,-0.056121 0.0901,-0.090099 0.02015,-0.026862 0.0249,-0.063237 0.04505,-0.090099 0.05097,-0.067957 0.136493,-0.1073573 0.180198,-0.180198 0.02443,-0.040719 0.02062,-0.094429 0.04505,-0.1351486 0.251409,-0.4190153 -0.09029,0.3157248 0.180198,-0.2252475 0.02124,-0.042473 0.02381,-0.092675 0.04505,-0.1351485 0.0095,-0.018994 0.03716,-0.025332 0.04505,-0.04505 0.02299,-0.057486 0.02205,-0.1227117 0.04505,-0.180198 0.0079,-0.019718 0.03555,-0.026055 0.04505,-0.04505 0.02124,-0.042473 0.02741,-0.091059 0.04505,-0.1351485 0.01247,-0.031176 0.03258,-0.058923 0.04505,-0.090099 0.01764,-0.04409 0.02741,-0.091058 0.04505,-0.1351485 0.01247,-0.031176 0.03846,-0.057173 0.04505,-0.090099 0,-0.3195237 -0.03186,-0.026389 0.04505,-0.180198 0.04247,-0.084946 0.05483,-0.1821171 0.0901,-0.270297 0.01247,-0.031176 0.0369,-0.057524 0.04505,-0.090099 0.0073,-0.029136 -0.0073,-0.060963 0,-0.090099 0.01629,-0.065151 0.06886,-0.1164884 0.0901,-0.180198 0.0047,-0.014246 -0.0047,-0.030804 0,-0.04505 0.05177,-0.1552953 0.04505,-0.033371 0.04505,-0.1351485 0,-0.015016 0,-0.030033 0,-0.045049 0,-0.015017 -0.01502,-0.04505 0,-0.04505 0.02124,0 0.03555,0.026055 0.04505,0.04505 0.01343,0.026862 -0.02124,0.068862 0,0.090099 0.01062,0.010618 0.03443,-0.010618 0.04505,0 0.05177,0.051765 0.04505,0.079671 0.04505,0.1351485 0,0.015016 -0.0047,0.030804 0,0.045049 0.01062,0.031855 0.03443,0.058244 0.04505,0.090099 0.0047,0.014246 -0.0067,0.031618 0,0.04505 0.02421,0.048427 0.06999,0.084878 0.0901,0.1351486 0.01115,0.027885 -0.0073,0.060963 0,0.090099 0.0081,0.032575 0.0369,0.057524 0.04505,0.090099 0.0073,0.029136 -0.0059,0.060649 0,0.090099 0.0093,0.046564 0.03574,0.088584 0.04505,0.1351485 0.0059,0.02945 -0.0073,0.060963 0,0.090099 0.0081,0.032575 0.03691,0.057524 0.04505,0.090099 0.01093,0.043705 -0.01425,0.092411 0,0.1351485 0.01062,0.031855 0.03443,0.058244 0.04505,0.090099 0.01264,0.037929 -0.01341,0.1984266 0,0.2252475 0.0095,0.018994 0.03555,0.026055 0.04505,0.045049 0.0067,0.013431 0,0.030033 0,0.04505 0,0.030033 0,0.060066 0,0.090099 0,0.045993 -0.0073,0.2934602 0,0.3153465 0.0067,0.020147 0.03833,0.024903 0.04505,0.04505 0.01389,0.04166 -0.01484,0.2406169 0,0.2702971 0.0095,0.018994 0.03833,0.024903 0.04505,0.045049 0.0069,0.020622 0,0.2001028 0,0.2252475 0,0.1351485 0,0.270297 0,0.4054456 0,0.4311363 -0.02015,-0.1007338 0.04505,0.2252475 0.01473,0.073624 0,0.150165 0,0.2252475 0,0.075082 0.01473,0.1516231 0,0.2252475 -0.0066,0.032926 -0.03691,0.057524 -0.04505,0.090099 -0.0073,0.029136 0.0059,0.060649 0,0.090099 -0.0093,0.046564 -0.03574,0.088584 -0.04505,0.1351485 -0.0059,0.02945 0.0059,0.060649 0,0.090099 -0.0083,0.041297 -0.05734,0.1815631 -0.0901,0.2252475 -0.02548,0.033978 -0.06825,0.053679 -0.0901,0.090099 -0.04886,0.081438 -0.04763,0.1853509 -0.0901,0.2702971 -0.02421,0.048427 -0.06589,0.086722 -0.0901,0.1351485 -0.02124,0.042473 -0.02381,0.092675 -0.04505,0.1351485 -0.02421,0.048427 -0.06588,0.086722 -0.0901,0.1351485 -0.02124,0.042473 -0.02381,0.092675 -0.04505,0.1351485 -0.04843,0.096853 -0.131771,0.1734435 -0.180198,0.2702971 -0.02124,0.042473 -0.02381,0.092675 -0.04505,0.1351485 -0.02421,0.048427 -0.06007,0.090099 -0.0901,0.1351485 -0.06007,0.090099 -0.126473,0.1762791 -0.180198,0.2702971 -0.03332,0.05831 -0.05748,0.121494 -0.0901,0.180198 -0.04252,0.07654 -0.09262,0.148706 -0.135148,0.225248 -0.114041,0.205273 -0.201306,0.42542 -0.315347,0.630693 -0.02629,0.04733 -0.06877,0.08538 -0.0901,0.135148 -0.02439,0.05691 -0.0107,0.128682 -0.04505,0.180198 -0.03003,0.04505 -0.09686,0.05181 -0.135149,0.0901 -0.01062,0.01062 0.01062,0.03443 0,0.04505 -0.01062,0.01062 -0.03255,-0.0083 -0.04505,0 -0.03534,0.02356 -0.05612,0.06461 -0.0901,0.0901 -0.02686,0.02015 -0.06324,0.0249 -0.0901,0.04505 -0.03398,0.02548 -0.05612,0.06461 -0.0901,0.0901 -0.02686,0.02015 -0.06636,0.02131 -0.0901,0.04505 -0.03829,0.03829 -0.04782,0.101326 -0.0901,0.135149 -0.03708,0.02966 -0.09443,0.02062 -0.135149,0.04505 -0.07284,0.0437 -0.112241,0.12923 -0.180198,0.180198 -0.02686,0.02015 -0.06324,0.0249 -0.0901,0.04505 -0.03398,0.02548 -0.06007,0.06007 -0.0901,0.0901 -0.03003,0.03003 -0.06461,0.05612 -0.0901,0.0901 -0.02015,0.02686 -0.02131,0.06635 -0.04505,0.0901 -0.04558,0.04558 -0.181266,0.06371 -0.225248,0.0901 -0.0644,0.03864 -0.161135,0.177163 -0.225248,0.225247 -0.05372,0.04029 -0.126473,0.04981 -0.180198,0.0901 -0.03398,0.02548 -0.05612,0.06461 -0.0901,0.0901 -0.02686,0.02015 -0.06007,0.03003 -0.0901,0.04505 -0.03003,0.01502 -0.05824,0.03443 -0.0901,0.04505 -0.01425,0.0047 -0.03162,-0.0067 -0.04505,0 -0.03799,0.019 -0.05476,0.06654 -0.0901,0.0901 -0.05588,0.03725 -0.120132,0.06007 -0.180198,0.0901 -0.0901,0.04505 -0.180198,0.0901 -0.270297,0.135149 -0.03003,0.01502 -0.06324,0.0249 -0.0901,0.04505 -0.03398,0.02548 -0.05612,0.06461 -0.0901,0.0901 -0.02686,0.02015 -0.06007,0.03003 -0.0901,0.04505 -0.03003,0.01502 -0.05752,0.03691 -0.0901,0.04505 -0.02914,0.0073 -0.06324,-0.01343 -0.0901,0 -0.03799,0.019 -0.06007,0.06007 -0.0901,0.0901 -0.01502,0.01502 -0.0249,0.03833 -0.04505,0.04505 -0.02849,0.0095 -0.06096,-0.0073 -0.0901,0 -0.03257,0.0081 -0.06007,0.03003 -0.0901,0.04505 -0.03003,0.01502 -0.06216,0.02642 -0.0901,0.04505 -0.08243,0.05495 -0.0045,0.05743 -0.135148,0.0901 -0.02914,0.0073 -0.06161,-0.0095 -0.0901,0 -0.02015,0.0067 -0.02738,0.03327 -0.04505,0.04505 -0.02269,0.09925 -0.092676,0.02381 -0.1351488,0.04505 -0.056037,0.02802 -0.034062,0.06208 -0.090099,0.0901 -0.013431,0.0067 -0.034431,-0.01062 -0.04505,0 -0.010618,0.01062 0.010618,0.03443 0,0.04505 -0.010618,0.01062 -0.031618,-0.0067 -0.045049,0 -0.018995,0.0095 -0.026055,0.03555 -0.04505,0.04505 -0.013431,0.0067 -0.034431,-0.01062 -0.045049,0 -0.010618,0.01062 0.013431,0.03833 0,0.04505 -0.026862,0.01343 -0.063237,-0.01343 -0.090099,0 -0.013431,0.0067 0.010618,0.03443 0,0.04505 -0.023743,0.02374 -0.066356,0.02131 -0.090099,0.04505 -0.010618,0.01062 0.010618,0.03443 0,0.04505 -0.021237,0.02124 -0.063237,-0.01343 -0.090099,0 -0.018994,0.0095 -0.026055,0.03555 -0.045049,0.04505 -0.013431,0.0067 -0.034431,-0.01062 -0.045049,0 -0.010618,0.01062 0.010618,0.03443 0,0.04505 -0.010618,0.01062 -0.031618,-0.0067 -0.04505,0 -0.1494104,0.14941 0.042473,-0.02124 -0.090099,0.04505 -0.1874853,0.09374 0.04816,-0.0031 -0.045049,0.0901 -0.010618,0.01062 -0.034431,-0.01062 -0.045049,0 -0.010618,0.01062 0.010618,0.03443 0,0.04505 -0.010618,0.01062 -0.034431,-0.01062 -0.04505,0 -0.010618,0.01062 0.010618,0.03443 0,0.04505 -0.010618,0.01062 -0.034431,-0.01062 -0.045049,0 -0.021237,0.02124 0.021236,0.06886 0,0.0901 -0.010618,0.01062 -0.031618,-0.0067 -0.04505,0 -0.061534,0.03077 -0.028565,0.05933 -0.090099,0.0901 -0.013431,0.0067 -0.034431,-0.01062 -0.04505,0 -0.010618,0.01062 0.00672,0.03162 0,0.04505 -0.0095,0.01899 -0.035552,0.02605 -0.04505,0.04505 -0.00672,0.01343 0.010618,0.03443 0,0.04505 -0.010618,0.01062 -0.031618,-0.0067 -0.045049,0 -0.018994,0.0095 -0.026055,0.03555 -0.045049,0.04505 -0.013431,0.0067 -0.031618,-0.0067 -0.04505,0 -0.099607,0.0498 -0.01398,0.02796 -0.045049,0.0901 -0.093743,0.187486 0.00311,-0.04816 -0.090099,0.04505 -0.010618,0.01062 0.010618,0.03443 0,0.04505 -0.010618,0.01062 -0.034431,-0.01062 -0.045049,0 -0.010618,0.01062 0.010618,0.03443 0,0.04505 -0.010618,0.01062 -0.034431,-0.01062 -0.04505,0 -0.010618,0.01062 0.010618,0.03443 0,0.04505 -0.021236,0.02124 -0.061607,-0.0095 -0.090099,0 -0.1552953,0.05177 -0.033371,0.04505 -0.1351485,0.04505"
       id="path3001"
       style="fill:#00ff00;stroke:#000000;stroke-width:0.1;stroke-linecap:butt;stroke-linejoin:miter;stroke-miterlimit:4;stroke-opacity:1;stroke-dasharray:none" />
    <path
       d="m 13.154456,12.215842 c -0.453732,-0.09888 -0.07323,0.163332 -0.135149,0.225247 -0.01062,0.01062 -0.03443,-0.01062 -0.04505,0 -0.02124,0.02124 0.02124,0.06886 0,0.0901 -0.01062,0.01062 -0.03443,-0.01062 -0.04505,0 -0.02124,0.02124 0.02124,0.06886 0,0.0901 -0.01062,0.01062 -0.03443,-0.01062 -0.04505,0 -0.02124,0.02124 0.02124,0.06886 0,0.0901 -0.01062,0.01062 -0.03443,-0.01062 -0.04505,0 -0.02252,0.02253 0.02252,0.112624 0,0.135149 -0.01062,0.01062 -0.03443,-0.01062 -0.04505,0 -0.02124,0.02124 0.01343,0.06324 0,0.0901 -0.0095,0.01899 -0.03555,0.02605 -0.04505,0.04505 -0.01343,0.02686 0.02124,0.06886 0,0.0901 -0.01062,0.01062 -0.03443,-0.01062 -0.04505,0 -0.01233,0.01233 0.01222,0.155759 0,0.180198 -0.0095,0.019 -0.03555,0.02605 -0.04505,0.04505 -0.01343,0.02686 0.02124,0.06886 0,0.0901 -0.01062,0.01062 -0.03443,-0.01062 -0.04505,0 -0.02124,0.02124 0.01343,0.06324 0,0.0901 -0.0095,0.01899 -0.03555,0.02605 -0.04505,0.04505 -0.0067,0.01343 0.01062,0.03443 0,0.04505 -0.01062,0.01062 -0.03443,-0.01062 -0.04505,0 -0.02252,0.02252 0.02252,0.112623 0,0.135148 -0.01062,0.01062 -0.03443,-0.01062 -0.04505,0 -0.02253,0.02252 0.02252,0.112624 0,0.135149 -0.01062,0.01062 -0.03443,-0.01062 -0.04505,0 -0.02252,0.02252 0.02252,0.112624 0,0.135148 -0.01062,0.01062 -0.03443,-0.01062 -0.04505,0 -0.01084,0.01084 0.01084,0.169358 0,0.180198 -0.01062,0.01062 -0.03443,-0.01062 -0.04505,0 -0.01084,0.01084 0.01084,0.169358 0,0.180198 -0.01062,0.01062 -0.03443,-0.01062 -0.04505,0 -0.01062,0.01062 0,0.03003 0,0.04505 0,0.01502 0,0.03003 0,0.04505 0,0.0901 0,0.180198 0,0.270297 0,0.01502 0.01062,0.03443 0,0.04505 -0.01062,0.01062 -0.03443,-0.01062 -0.04505,0 -0.02124,0.02124 0.02124,0.06886 0,0.0901 -0.01062,0.01062 -0.03443,-0.01062 -0.04505,0 -0.02124,0.02124 0.02124,0.06886 0,0.0901 -0.01062,0.01062 -0.03443,-0.01062 -0.04505,0 -0.01521,0.01521 0.01521,0.07489 0,0.0901 -0.01062,0.01062 -0.03443,-0.01062 -0.04505,0 -0.01062,0.01062 0.01062,0.03443 0,0.04505 -0.01062,0.01062 -0.03443,-0.01062 -0.04505,0 -0.01062,0.01062 0.01062,0.03443 0,0.04505 -0.01062,0.01062 -0.03443,-0.01062 -0.04505,0 -0.01062,0.01062 0.01062,0.03443 0,0.04505 -0.01062,0.01062 -0.03162,-0.0067 -0.04505,0 -0.01899,0.0095 -0.02605,0.03555 -0.04505,0.04505 -0.01343,0.0067 -0.03162,-0.0067 -0.04505,0 -0.187485,0.09374 0.04816,-0.0031 -0.04505,0.0901 -0.01062,0.01062 -0.03162,-0.0067 -0.04505,0 -0.01899,0.0095 -0.02605,0.03555 -0.04505,0.04505 -0.01343,0.0067 -0.03162,-0.0067 -0.04505,0 -0.01899,0.0095 -0.02605,0.03555 -0.04505,0.04505 -0.01343,0.0067 -0.03162,-0.0067 -0.04505,0 -0.01899,0.0095 -0.02605,0.03555 -0.04505,0.04505 -0.01343,0.0067 -0.03162,-0.0067 -0.04505,0 -0.01899,0.0095 -0.02606,0.03555 -0.04505,0.04505 -0.02686,0.01343 -0.06324,-0.01343 -0.0901,0 -0.019,0.0095 -0.03003,0.03003 -0.04505,0.04505 -0.03003,0 -0.06161,-0.0095 -0.0901,0 -0.02015,0.0067 -0.02605,0.03555 -0.04505,0.04505 -0.03604,0.01802 -0.09911,-0.01802 -0.135149,0 -0.01899,0.0095 -0.02606,0.03555 -0.04505,0.04505 -0.01343,0.0067 -0.03003,0 -0.04505,0 -0.01502,0 -0.03003,0 -0.04505,0 -0.105116,0 -0.210231,0 -0.315347,0 -0.03003,0 -0.06007,0 -0.0901,0 -0.01502,0 -0.03162,-0.0067 -0.04505,0 -0.019,0.0095 -0.0249,0.03833 -0.04505,0.04505 -0.04274,0.01425 -0.0901,0 -0.135148,0 -0.0901,0 -0.180198,0 -0.270297,0 -0.2252478,0 -0.4504954,0 -0.6757429,0 -0.7358086,0 -1.4716172,0 -2.2074257,0 -0.2702971,0 -0.5405941,0 -0.8108911,0 -0.075083,0 -0.1501651,0 -0.2252476,0 -0.030033,0 -0.060066,0 -0.090099,0 -0.015017,0 -0.031618,0.0067 -0.04505,0 -0.018994,-0.0095 -0.024903,-0.03833 -0.04505,-0.04505 -0.026357,-0.0088 -0.2316297,0 -0.270297,0 -0.2102311,0 -0.4204621,0 -0.6306931,0 -0.075083,0 -0.150165,0 -0.2252475,0 -0.030033,0 -0.060963,0.0073 -0.090099,0 -0.032575,-0.0081 -0.058244,-0.03443 -0.090099,-0.04505 -0.026915,-0.009 -0.063184,0.009 -0.090099,0 -0.031855,-0.01062 -0.058244,-0.03443 -0.090099,-0.04505 -0.014246,-0.0047 -0.031618,0.0067 -0.04505,0 -0.018994,-0.0095 -0.024903,-0.03833 -0.04505,-0.04505 -0.028492,-0.0095 -0.061607,0.0095 -0.090099,0 -0.020147,-0.0067 -0.024903,-0.03833 -0.045049,-0.04505 -0.028492,-0.0095 -0.061607,0.0095 -0.090099,0 -0.020147,-0.0067 -0.02738,-0.03327 -0.04505,-0.04505 -0.083168,-0.05545 -0.1871287,-0.0797 -0.270297,-0.135149 -0.01767,-0.01178 -0.02738,-0.03327 -0.04505,-0.04505 -0.027938,-0.01863 -0.060066,-0.03003 -0.090099,-0.04505 -0.030033,-0.01502 -0.058244,-0.03443 -0.090099,-0.04505 -0.014246,-0.0047 -0.030804,0.0047 -0.04505,0 -0.031855,-0.01062 -0.058244,-0.03443 -0.090099,-0.04505 -0.014246,-0.0047 -0.031618,0.0067 -0.045049,0 -0.018995,-0.0095 -0.026055,-0.03555 -0.04505,-0.04505 -0.013431,-0.0067 -0.034431,0.01062 -0.04505,0 -0.010618,-0.01062 0.010618,-0.03443 0,-0.04505 -0.021236,-0.02124 -0.063237,0.01343 -0.090099,0 -0.01852,-0.0093 -0.071579,-0.08084 -0.090099,-0.0901 -0.013431,-0.0067 -0.031618,0.0067 -0.04505,0 -0.018995,-0.0095 -0.026055,-0.03555 -0.045049,-0.04505 -0.013431,-0.0067 -0.030033,0 -0.04505,0 -0.015016,-0.01502 -0.026055,-0.03555 -0.045049,-0.04505 -0.026862,-0.01343 -0.068863,0.02124 -0.090099,0 -0.010618,-0.01062 0.010618,-0.03443 0,-0.04505 -0.010618,-0.01062 -0.031618,0.0067 -0.045049,0 -0.018995,-0.0095 -0.026055,-0.03555 -0.04505,-0.04505 -0.013431,-0.0067 -0.031618,0.0067 -0.04505,0 -0.018994,-0.0095 -0.026055,-0.03555 -0.045049,-0.04505 -0.013431,-0.0067 -0.034431,0.01062 -0.04505,0 -0.010618,-0.01062 0.00672,-0.03162 0,-0.04505 -0.0095,-0.01899 -0.035552,-0.02605 -0.045049,-0.04505 -0.00672,-0.01343 0.010618,-0.03443 0,-0.04505 -0.010618,-0.01062 -0.034431,0.01062 -0.04505,0 -0.022525,-0.02252 0.022525,-0.112623 0,-0.135148 -0.010618,-0.01062 -0.034431,0.01062 -0.045049,0 -0.021237,-0.02124 0.013431,-0.06324 0,-0.0901 -0.0095,-0.019 -0.035552,-0.02605 -0.04505,-0.04505 -0.00893,-0.01786 0.00921,-0.125938 0,-0.135148 -0.010618,-0.01062 -0.034431,0.01062 -0.04505,0 -0.010618,-0.01062 0,-0.03003 0,-0.04505 0,-0.01502 0,-0.03003 0,-0.04505 0,-0.04537 0.0083,-0.245384 0,-0.270297 -0.00672,-0.02015 -0.035552,-0.02605 -0.045049,-0.04505 -0.00672,-0.01343 0,-0.03003 0,-0.04505 0,-0.01502 0,-0.03003 0,-0.04505 0,-0.0901 0,-0.180198 0,-0.270297 0,-0.270297 0,-0.540594 0,-0.810891 0,-0.165181 0,-0.330363 0,-0.495544 0,-0.01502 0,-0.03003 0,-0.04505 0,-0.01502 -0.010618,-0.03443 0,-0.04505 0.010618,-0.01062 0.034431,0.01062 0.045049,0 0.021237,-0.02124 -0.021237,-0.06886 0,-0.0901 0.010618,-0.01062 0.034431,0.01062 0.04505,0 0.010618,-0.01062 -0.010618,-0.03443 0,-0.04505 0.010618,-0.01062 0.034431,0.01062 0.04505,0 0.010618,-0.01062 -0.010618,-0.03443 0,-0.04505 0.022525,-0.02252 0.1126238,0.02253 0.1351485,0 0.060066,-0.06007 -0.075082,-0.04505 0.04505,-0.04505 0.015016,0 0.060066,0 0.045049,0 -0.07137,0 -0.175442,0.01343 0,-0.04505 0.014246,-0.0047 0.030033,0 0.04505,0 0.015017,0 0.04505,-0.01502 0.04505,0 0,0.01502 -0.060066,0 -0.04505,0 0.060066,0 0.120132,0 0.1801981,0 0.015016,0 0.034431,0.01062 0.045049,0 0.010618,-0.01062 -0.010618,-0.03443 0,-0.04505 0.010618,-0.01062 0.034431,0.01062 0.04505,0 0.010618,-0.01062 -0.010618,-0.03443 0,-0.04505 0.010618,-0.01062 0.034431,0.01062 0.045049,0 0.010618,-0.01062 -0.010618,-0.03443 0,-0.04505 0.010618,-0.01062 0.034431,0.01062 0.04505,0 0.010618,-0.01062 -0.010618,-0.03443 0,-0.04505 0.010618,-0.01062 0.034431,0.01062 0.04505,0 0.010618,-0.01062 -0.010618,-0.03443 0,-0.04505 0.010618,-0.01062 0.034431,0.01062 0.045049,0 0.010618,-0.01062 -0.010618,-0.03443 0,-0.04505 0.010618,-0.01062 0.034431,0.01062 0.04505,0 0.010618,-0.01062 -0.010618,-0.03443 0,-0.04505 0.010618,-0.01062 0.034431,0.01062 0.045049,0 0.021237,-0.02124 -0.021236,-0.06886 0,-0.0901 0.010618,-0.01062 0.034431,0.01062 0.04505,0 0.021237,-0.02124 -0.021237,-0.06886 0,-0.0901 0.010618,-0.01062 0.034431,0.01062 0.04505,0 0.010618,-0.01062 -0.00672,-0.03162 0,-0.04505 0.1494104,-0.14941 -0.021237,0.04247 0.045049,-0.0901 0.0095,-0.01899 0.035552,-0.02605 0.04505,-0.04505 0.012082,-0.02416 -0.012082,-0.06593 0,-0.0901 0.0095,-0.019 0.035552,-0.02606 0.045049,-0.04505 0.00672,-0.01343 -0.010618,-0.03443 0,-0.04505 0.010618,-0.01062 0.034431,0.01062 0.04505,0 0.021237,-0.02124 -0.013431,-0.06324 0,-0.0901 0.0095,-0.019 0.035552,-0.02605 0.045049,-0.04505 0.01802,-0.03604 -0.01802,-0.09911 0,-0.135148 0.0095,-0.019 0.038334,-0.0249 0.04505,-0.04505 0.020503,-0.06151 -0.020503,-0.208786 0,-0.270297 0.00672,-0.02015 0.035552,-0.02605 0.04505,-0.04505 0.013431,-0.02686 -0.013431,-0.06324 0,-0.0901 0.0095,-0.019 0.038334,-0.0249 0.045049,-0.04505 0.014246,-0.04274 -0.014246,-0.09241 0,-0.1351482 0.010618,-0.031855 0.036906,-0.057524 0.04505,-0.090099 0.00728,-0.029136 -0.0095,-0.061607 0,-0.090099 0.00672,-0.020147 0.038334,-0.024903 0.04505,-0.04505 0.0095,-0.028492 0,-0.060066 0,-0.090099 0,-0.015016 -0.00672,-0.031618 0,-0.045049 0.0095,-0.018994 0.038334,-0.024903 0.045049,-0.04505 0.013911,-0.041734 -0.014389,-0.1820806 0,-0.2252475 0.010618,-0.031855 0.034431,-0.058244 0.04505,-0.090099 0.014246,-0.042738 -0.010926,-0.091444 0,-0.1351485 0.00814,-0.032575 0.036906,-0.057524 0.04505,-0.090099 0.00728,-0.029136 0,-0.060066 0,-0.090099 0.015016,-0.030033 0.034431,-0.058244 0.04505,-0.090099 0.00475,-0.014246 -0.00672,-0.031618 0,-0.04505 0.029531,-0.059062 0.060568,-0.031036 0.090099,-0.090099 0.00672,-0.013431 -0.00672,-0.031618 0,-0.04505 0.1494104,-0.1494104 -0.021236,0.042473 0.04505,-0.090099 0.0095,-0.018994 0.035552,-0.026055 0.04505,-0.045049 0.013431,-0.026862 -0.013431,-0.063237 0,-0.090099 0.0095,-0.018994 0.035552,-0.026055 0.045049,-0.045049 0.013431,-0.026862 -0.021236,-0.068862 0,-0.090099 0.010618,-0.010618 0.034431,0.010618 0.04505,0 0.010618,-0.010618 -0.00672,-0.031618 0,-0.045049 0.0095,-0.018995 0.038334,-0.024903 0.04505,-0.04505 0,-0.2050782 -0.021236,-0.00258 0.04505,-0.1351485 0.01207,-0.024141 -0.01207,-0.065958 0,-0.090099 0.1494104,-0.1494104 -0.021237,0.042473 0.04505,-0.090099 0.0095,-0.018994 0.035552,-0.026055 0.045049,-0.04505 0.00672,-0.013431 -0.00672,-0.031618 0,-0.045049 0.0095,-0.018995 0.035552,-0.026055 0.04505,-0.04505 0.00672,-0.013431 -0.00672,-0.031618 0,-0.04505 0.029508,-0.059016 0.060591,-0.031083 0.090099,-0.090099 0.00672,-0.013431 -0.00672,-0.031618 0,-0.045049 0.0095,-0.018995 0.035552,-0.026055 0.04505,-0.04505 0.00672,-0.013431 -0.010618,-0.034431 0,-0.04505 0.010618,-0.010618 0.034431,0.010618 0.04505,0 0.021236,-0.021237 -0.021237,-0.068862 0,-0.090099 0.010618,-0.010618 0.034431,0.010618 0.04505,0 0.010618,-0.010618 -0.010618,-0.034431 0,-0.045049 0.010618,-0.010618 0.034431,-0.010618 0.04505,0 0.010618,0.010618 0,0.030033 0,0.045049 0,0.015017 0,0.030033 0,0.04505 0,0.090099 0,0.180198 0,0.270297 0,0.030033 0,0.060066 0,0.090099 0,0.015016 -0.00475,0.030804 0,0.045049 0.010618,0.031855 0.036906,0.057524 0.045049,0.090099 0.00916,0.036634 0,0.2231375 0,0.2702971 0,0.030033 -0.0095,0.061607 0,0.090099 0.00672,0.020147 0.038334,0.024903 0.04505,0.045049 0.00975,0.029245 0,0.2744247 0,0.3153465 0,0.015016 -0.00475,0.030804 0,0.04505 0.010618,0.031855 0.034431,0.058244 0.04505,0.090099 0.00847,0.025417 0,0.1055462 0,0.1351486 0,0.075083 0,0.150165 0,0.2252475 0,0.037724 -0.00856,0.1909889 0,0.2252475 0.00814,0.032575 0.034431,0.058244 0.04505,0.090099 0.00973,0.029182 0,0.3112645 0,0.3603961 0,0.030033 -0.0095,0.061607 0,0.090099 0.00672,0.020147 0.038334,0.024903 0.04505,0.045049 0.014246,0.042738 -0.014246,0.092411 0,0.1351484 0.015016,0.03003 0.030033,0.06007 0.045049,0.0901 0,0.03003 -0.0095,0.06161 0,0.0901 0.00672,0.02015 0.035552,0.02605 0.04505,0.04505 0.013431,0.02686 -0.0095,0.06161 0,0.0901 0.010618,0.03186 0.034431,0.05824 0.04505,0.0901 0.00475,0.01425 -0.00475,0.0308 0,0.04505 0.010618,0.03186 0.034431,0.05825 0.04505,0.0901 0.0095,0.02849 -0.013431,0.06324 0,0.0901 0.103087,0.206174 -0.018672,-0.191163 0.090099,0.135149 0.044702,0.134105 -0.1066714,-0.09243 0.04505,0.135148 0.01178,0.01767 0.038334,0.0249 0.04505,0.04505 0.0095,0.02849 -0.0095,0.06161 0,0.0901 0.00672,0.02015 0.035552,0.02606 0.04505,0.04505 0.021237,0.04247 0.023813,0.09268 0.04505,0.135149 0.0095,0.01899 0.03327,0.02738 0.04505,0.04505 0.018626,0.02794 0.026424,0.06216 0.04505,0.0901 0.01178,0.01767 0.03327,0.02738 0.04505,0.04505 0.018626,0.02794 0.026424,0.06216 0.045049,0.0901 0.02356,0.03534 0.060066,0.06007 0.090099,0.0901 0.04505,0.04505 0.090099,0.0901 0.1351485,0.135148 0.030033,0.03003 0.054759,0.06654 0.090099,0.0901 0.055877,0.03725 0.124321,0.05285 0.180198,0.0901 0.01767,0.01178 0.02738,0.03327 0.04505,0.04505 0.027939,0.01863 0.062161,0.02642 0.090099,0.04505 0.01767,0.01178 0.02738,0.03327 0.04505,0.04505 0.055877,0.03725 0.120132,0.06007 0.180198,0.0901 0.030033,0.01502 0.057173,0.03846 0.090099,0.04505 0.044175,0.0088 0.090974,-0.0088 0.1351485,0 0.032926,0.0066 0.058923,0.03258 0.090099,0.04505 0.08818,0.03527 0.180198,0.06007 0.270297,0.0901 0.04505,0.01502 0.088308,0.03724 0.1351486,0.04505 0.044437,0.0074 0.090712,-0.0074 0.1351485,0 0.04684,0.0078 0.088308,0.03724 0.1351485,0.04505 0.088873,0.01481 0.1814239,-0.01481 0.270297,0 0.04684,0.0078 0.088308,0.03724 0.1351485,0.04505 0.044437,0.0074 0.090099,0 0.1351486,0 0.00967,0 0.1937768,0 0.2252475,0 0.1051155,0 0.210231,0 0.3153465,0 0.030033,0 0.060963,0.0073 0.090099,0 0.032575,-0.0081 0.060066,-0.03003 0.090099,-0.04505 0.030033,-0.01502 0.062161,-0.02642 0.090099,-0.04505 0.01767,-0.01178 0.02738,-0.03327 0.045049,-0.04505 0.022687,-0.09925 0.092675,-0.02381 0.1351485,-0.04505 0.018994,-0.0095 0.02738,-0.03327 0.04505,-0.04505 0.027938,-0.01863 0.06216,-0.02642 0.090099,-0.04505 0.01767,-0.01178 0.030033,-0.03003 0.04505,-0.04505 0.030033,-0.01502 0.06216,-0.02642 0.090099,-0.04505 0.01767,-0.01178 0.030033,-0.03003 0.045049,-0.04505 0.015016,-0.01502 0.03327,-0.02738 0.045049,-0.04505 0.018626,-0.02794 0.026424,-0.06216 0.04505,-0.0901 0.034653,-0.05198 0.1004951,-0.08317 0.1351485,-0.135149 0.037251,-0.05588 0.052848,-0.124321 0.090099,-0.180198 0.02356,-0.03534 0.071104,-0.05211 0.090099,-0.0901 0.013431,-0.02686 -0.00728,-0.06096 0,-0.0901 0.1555524,-0.466657 -0.046268,0.18629 0.045049,-0.270297 0.00659,-0.03293 0.032579,-0.05892 0.04505,-0.0901 0.035272,-0.08818 0.060066,-0.180198 0.090099,-0.270297 0.015017,-0.04505 0.037243,-0.08831 0.045049,-0.135149 0.0074,-0.04444 -0.00741,-0.09071 0,-0.135148 0.03125,-0.187485 0.04108,-0.07819 0.0901,-0.225248 0.0085,-0.02542 0,-0.105546 0,-0.135148 0,-0.105116 0,-0.2102314 0,-0.3153469 0,-0.030033 -0.0073,-0.060963 0,-0.090099 0.0081,-0.032575 0.03691,-0.057524 0.04505,-0.090099 0.0089,-0.035437 0,-0.223449 0,-0.2702971 0,-0.2252475 0,-0.450495 0,-0.6757426 0,-0.090099 0,-0.180198 0,-0.270297 0,-0.015016 0,-0.030033 0,-0.045049 0,-0.015017 -0.01502,-0.04505 0,-0.04505 0.01502,0 0.01502,0.04505 0,0.04505 -0.01502,0 0.01502,-0.04505 0,-0.04505 -0.02124,0 -0.03555,0.026055 -0.04505,0.04505 -0.0067,0.013431 0,0.030033 0,0.045049 0,0.015016 0,0.030033 0,0.045049 0,0.090099 0,0.180198 0,0.270297 0,0.1952146 0,0.3904291 0,0.5856436 0,0.03307 -0.0079,0.2545916 0,0.270297 0.0095,0.018995 0.03833,0.024903 0.04505,0.04505 0.0095,0.028492 0,0.060066 0,0.090099 0,0.015016 -0.0067,0.031618 0,0.045049 0.0095,0.018995 0.03003,0.030033 0.04505,0.04505 0,0.030033 -0.0095,0.061607 0,0.090099 0.0067,0.020147 0.03833,0.024903 0.04505,0.04505 0.03736,0.112075 -0.05008,0.08256 0.04505,0.225247 0.01178,0.01767 0.03555,0.02605 0.04505,0.04505 0.0089,0.01786 -0.0092,0.125939 0,0.135148 0.01062,0.01062 0.03833,-0.01343 0.04505,0 0.01343,0.02686 -0.0095,0.06161 0,0.0901 0.0067,0.02015 0.03555,0.02606 0.04505,0.04505 0.0067,0.01343 -0.0047,0.0308 0,0.04505 0.02124,0.06371 0.06886,0.116489 0.0901,0.180198 0.01351,0.04054 -0.01351,0.0946 0,0.135149 0.0067,0.02015 0.03327,0.02738 0.04505,0.04505 0.05545,0.08317 0.0797,0.187129 0.135149,0.270297 0.01178,0.01767 0.03003,0.03003 0.04505,0.04505 0.01502,0.03003 0.02642,0.06216 0.04505,0.0901 0.02356,0.03534 0.0711,0.05211 0.0901,0.0901 0.0067,0.01343 -0.0067,0.03162 0,0.04505 0.0095,0.019 0.03003,0.03003 0.04505,0.04505 0.01502,0.01502 0.02605,0.03555 0.04505,0.04505 0.01343,0.0067 0.03443,-0.01062 0.04505,0 0.01062,0.01062 -0.0067,0.03162 0,0.04505 0.01996,0.03993 0.107809,0.09414 0.135149,0.135148 0.01863,0.02794 0.02642,0.06216 0.04505,0.0901 0.01467,0.022 0.158198,0.165531 0.180198,0.180198 0.02269,0.09925 0.09268,0.02381 0.135149,0.04505 0.03799,0.019 0.05476,0.06654 0.0901,0.0901 0.02794,0.01863 0.06216,0.02642 0.0901,0.04505 0.01767,0.01178 0.02606,0.03555 0.04505,0.04505 0.01343,0.0067 0.03162,-0.0067 0.04505,0 0.102539,0.102539 -0.0093,0.01191 0.0901,0.04505 0.326312,0.10877 -0.07103,-0.01299 0.135148,0.0901 0.03604,0.01802 0.09911,-0.01802 0.135149,0 0.01899,0.0095 0.02606,0.03555 0.04505,0.04505 0.01165,0.0058 0.238366,0 0.270297,0 0.04243,0 0.199621,0.0085 0.225248,0 0.02015,-0.0067 0.02605,-0.03555 0.04505,-0.04505 0.02831,-0.01416 0.151883,0.01416 0.180198,0 0.01899,-0.0095 0.02738,-0.03327 0.04505,-0.04505 0.07286,-0.04857 0.150165,-0.0901 0.225248,-0.135148 z"
       id="path3775"
       style="color:#000000;fill:#008000;stroke:#000000;stroke-width:0.1;stroke-linecap:butt;stroke-linejoin:miter;stroke-miterlimit:4;stroke-opacity:1;stroke-dasharray:none;stroke-dashoffset:0;marker:none;visibility:visible;display:inline;overflow:visible;enable-background:accumulate" />
    <path
       d="m 0.99108912,0.23267313 c -0.19362919,-0.0968146 -0.11304219,-0.090099 -0.22524753,-0.090099 -0.0150165,0 -0.0344312,0.0106183 -0.0450495,0 -0.0106183,-0.0106183 0.0106183,-0.0344312 0,-0.04504951 -0.0106183,-0.01061827 -0.030033,0 -0.0450495,0 -0.0150165,0 -0.030033,0 -0.0450495,0 -0.12013201,0 -0.24026402,0 -0.36039604,0 -0.0150165,0 -0.030033,0 -0.0450495,0 -0.0150165,0 -0.0344312,-0.01061827 -0.0450495,0 -0.0106183,0.01061827 0.0106183,0.03443124 0,0.04504951 -0.0106183,0.0106183 -0.0344312,-0.0106183 -0.0450495,0 -0.0106183,0.0106183 0,0.030033 0,0.0450495 0,0.0750825 0,0.15016502 0,0.22524753 0,0.0165438 -0.001813,0.17838517 0,0.18019802 0.0106183,0.0106183 0.0344312,-0.0106183 0.0450495,0 0.0212365,0.0212365 -0.0212365,0.0688625 0,0.090099 0.0106183,0.0106183 0.0344312,-0.0106183 0.0450495,0 0.0225248,0.0225247 -0.0225248,0.11262376 0,0.13514852 0.0106183,0.0106183 0.0344312,-0.0106183 0.0450495,0 0.0106183,0.0106183 -0.0106183,0.0344312 0,0.0450495 0.0106183,0.0106183 0.0344312,-0.0106183 0.0450495,0 0.0212365,0.0212365 -0.0212365,0.0688625 0,0.090099 0.0106183,0.0106183 0.0344312,-0.0106183 0.0450495,0 0.0212365,0.0212365 -0.0212365,0.0688625 0,0.090099 0.0106183,0.010618 0.0344312,-0.010618 0.0450495,0 0.0106183,0.010618 -0.0106183,0.034431 0,0.045049 0.0106183,0.010618 0.0344312,-0.010618 0.0450495,0 0.0106183,0.010618 -0.0106183,0.034431 0,0.045049 0.0106183,0.010618 0.0344312,-0.010618 0.0450495,0 0.0106183,0.010618 -0.0106183,0.034431 0,0.045049 0.0106183,0.010618 0.0344312,-0.010618 0.0450495,0 0.0106183,0.010618 -0.0106183,0.034431 0,0.045049 0.0106183,0.010618 0.0344312,-0.010618 0.0450495,0 0.0106183,0.010618 -0.0106183,0.034431 0,0.04505 0.0106183,0.010618 0.0344312,-0.010618 0.0450495,0 0.0106183,0.010618 -0.0106183,0.034431 0,0.04505 0.0106183,0.010618 0.0344312,-0.010618 0.0450495,0 0.0106183,0.010618 -0.0106183,0.034431 0,0.04505 0.002042,0.00204 0.20400678,0 0.22524753,0 0.0212407,0 0.22320582,0.00204 0.22524752,0 0.010618,-0.010618 -0.010618,-0.034431 0,-0.04505 0.010618,-0.010618 0.034431,0.010618 0.045049,0 0.010618,-0.010618 -0.010618,-0.034431 0,-0.04505 0.010618,-0.010618 0.034431,0.010618 0.045049,0 0.010618,-0.010618 -0.010618,-0.034431 0,-0.04505 0.010618,-0.010618 0.034431,0.010618 0.045049,0 0.021237,-0.021236 -0.013431,-0.063237 0,-0.090099 0.0095,-0.018995 0.035552,-0.026055 0.04505,-0.045049 0.00962,-0.01924 0,-0.20743885 0,-0.2252475 0,-0.0235573 0.00592,-0.16835264 0,-0.18019802 -0.0095,-0.0189945 -0.035552,-0.026055 -0.04505,-0.0450495 -0.00672,-0.0134312 0.010618,-0.0344312 0,-0.0450495 -0.010618,-0.0106183 -0.034431,0.0106183 -0.045049,0 -0.010618,-0.0106183 0.010618,-0.0344312 0,-0.0450495 -0.010618,-0.0106183 -0.034431,0.0106183 -0.045049,0 -0.010618,-0.0106183 0.00672,-0.0316183 0,-0.0450495 -0.0095,-0.0189945 -0.03327,-0.0273796 -0.045049,-0.0450495 -0.04857,-0.0728547 -0.0651,-0.17271122 -0.13514851,-0.22524752 -0.0612556,-0.0459417 -0.15415459,-0.0166123 -0.22524753,-0.0450495 -0.0139425,-0.005577 0.0106183,-0.0344312 0,-0.0450495 -0.0212365,-0.0212365 -0.0632367,0.0134312 -0.090099,0 -0.0189945,-0.009497 -0.026055,-0.0355522 -0.0450495,-0.04504951 -0.0134312,-0.0067156 -0.0344312,0.01061827 -0.0450495,0 -0.0106183,-0.01061827 0.0106183,-0.03443123 0,-0.0450495 -0.0212365,-0.02123655 -0.0688625,0.02123654 -0.090099,0 -0.0106183,-0.01061827 0.0106183,-0.03443124 0,-0.04504951 -0.0212365,-0.02123654 -0.0688625,0.02123654 -0.090099,0 -0.0106183,-0.01061827 0.0106183,-0.03443124 0,-0.04504951 -0.0106183,-0.01061827 -0.030033,0 -0.0450495,0 -0.0150165,0 -0.030033,0 -0.0450495,0"
       id="path3796"
       style="color:#000000;fill:none;stroke:#000000;stroke-width:1px;stroke-linecap:butt;stroke-linejoin:miter;stroke-miterlimit:4;stroke-opacity:1;stroke-dasharray:none;stroke-dashoffset:0;marker:none;visibility:visible;display:inline;overflow:visible;enable-background:accumulate" />
    <path
       d="m 15.677228,0.09752461 c -0.0071,0.02757673 -0.265824,-0.01650766 -0.315347,0 -0.03185,0.01061827 -0.05824,0.03443124 -0.0901,0.04504951 -0.01425,0.004749 -0.03003,0 -0.04505,0 -0.02515,0 -0.204626,-0.006874 -0.225248,0 -0.02015,0.006716 -0.02606,0.0355522 -0.04505,0.0450495 -0.01343,0.006716 -0.03003,0 -0.04505,0 -0.01502,0.0150165 -0.02605,0.0355522 -0.04505,0.0450495 -0.01343,0.006716 -0.03443,-0.0106183 -0.04505,0 -0.01062,0.0106183 0.01062,0.0344312 0,0.0450495 -0.01062,0.0106183 -0.03162,-0.006716 -0.04505,0 -0.187485,0.0937426 0.04816,-0.00311 -0.04505,0.090099 -0.01062,0.0106183 -0.03443,-0.0106183 -0.04505,0 -0.02124,0.0212365 0.02124,0.0688625 0,0.090099 -0.01062,0.0106183 -0.03443,-0.0106183 -0.04505,0 -0.0014,0.001449 0,0.12422281 0,0.13514852 0,0.0150165 -0.01062,0.0344312 0,0.0450495 0.01062,0.0106183 0.03443,-0.0106183 0.04505,0 0.01062,0.0106183 -0.01062,0.0344312 0,0.0450495 0.01062,0.0106183 0.03443,-0.0106183 0.04505,0 0.02124,0.0212365 -0.02124,0.0688625 0,0.090099 0.01062,0.0106183 0.03443,-0.0106183 0.04505,0 0.01062,0.0106183 -0.01062,0.0344312 0,0.0450495 0.01062,0.0106183 0.03443,-0.0106183 0.04505,0 0.01062,0.0106183 -0.01062,0.0344312 0,0.0450495 0.02124,0.0212365 0.06886,-0.0212365 0.0901,0 0.01062,0.0106183 -0.01062,0.0344312 0,0.0450495 0.02124,0.0212365 0.06886,-0.0212365 0.0901,0 0.01062,0.0106183 -0.01062,0.0344312 0,0.0450495 0.02124,0.0212365 0.06886,-0.0212365 0.0901,0 0.01062,0.0106183 -0.01062,0.0344312 0,0.0450495 0.02252,0.0225248 0.112624,-0.0225247 0.135149,0 0.01062,0.0106183 -0.01062,0.0344313 0,0.0450495 0.02124,0.021237 0.06161,-0.0095 0.0901,0 0.03186,0.010618 0.05824,0.034431 0.0901,0.045049 0.02828,0.00943 0.143931,0 0.180198,0 0.01502,0 0.03443,0.010618 0.04505,0 0.01062,-0.010618 0,-0.030033 0,-0.045049 0,-0.0750825 0,-0.15016491 0,-0.22524742 0,-0.0150165 -0.01062,-0.0344312 0,-0.0450495 0.01062,-0.0106183 0.03443,0.0106183 0.04505,0 0.02124,-0.0212365 -0.01343,-0.0632367 0,-0.090099 0.0095,-0.0189945 0.03555,-0.026055 0.04505,-0.0450495 0.01343,-0.0268623 -0.02124,-0.0688625 0,-0.090099 0.01062,-0.0106183 0.03443,0.0106183 0.04505,0 0.02252,-0.0225247 -0.02252,-0.11262376 0,-0.13514851 0.01062,-0.0106183 0.03443,0.0106183 0.04505,0 0.01062,-0.0106183 -0.01062,-0.0344312 0,-0.0450495 0.01062,-0.0106183 0.03443,0.0106183 0.04505,0 0.01062,-0.0106183 -0.01062,-0.0344312 0,-0.0450495 0.01062,-0.0106183 0.03443,0.0106183 0.04505,0 0.01062,-0.0106183 -0.01062,-0.0344312 0,-0.0450495 0.01062,-0.0106183 0.03443,0.0106183 0.04505,0 0.01062,-0.0106183 -0.01062,-0.0344312 0,-0.0450495 0.01084,-0.0108403 0.169358,0.0108403 0.180198,0 0.0045,-0.004505 0.0045,-0.13064357 0,-0.13514852 -0.01062,-0.01061827 -0.03003,0 -0.04505,0 -0.01502,0 -0.03003,0 -0.04505,0"
       id="path3798"
       style="color:#000000;fill:none;stroke:#000000;stroke-width:1px;stroke-linecap:butt;stroke-linejoin:miter;stroke-miterlimit:4;stroke-opacity:1;stroke-dasharray:none;stroke-dashoffset:0;marker:none;visibility:visible;display:inline;overflow:visible;enable-background:accumulate" />
    <path
       d="m 15.767327,15.324257 c -0.120132,0 -0.240264,0 -0.360396,0 -0.135149,0 -0.270297,0 -0.405446,0 -0.01502,0 -0.03003,0 -0.04505,0 -0.01502,0 -0.03443,-0.01062 -0.04505,0 -0.0014,0.0014 0,0.124223 0,0.135149 0,0.02124 -0.002,0.223206 0,0.225247 0.01062,0.01062 0.03443,-0.01062 0.04505,0 0.01062,0.01062 -0.01062,0.03443 0,0.04505 0.01062,0.01062 0.03443,-0.01062 0.04505,0 0.01062,0.01062 -0.0067,0.03162 0,0.04505 0.0095,0.019 0.03555,0.02606 0.04505,0.04505 0.0067,0.01343 -0.01062,0.03443 0,0.04505 0.02124,0.02124 0.06886,-0.02124 0.0901,0 0.01062,0.01062 -0.01062,0.03443 0,0.04505 0.02124,0.02124 0.06886,-0.02124 0.0901,0 0.01062,0.01062 -0.01062,0.03443 0,0.04505 0.01062,0.01062 0.03003,0 0.04505,0 0.03133,0 0.208956,-0.0081 0.225248,0 0.01899,0.0095 0.0249,0.03833 0.04505,0.04505 0.02491,0.0083 0.22493,0 0.270297,0 0.01502,0 0.03443,0.01062 0.04505,0 0.01062,-0.01062 -0.01062,-0.03443 0,-0.04505 0.01062,-0.01062 0.03443,0.01062 0.04505,0 0.02124,-0.02124 -0.02124,-0.06886 0,-0.0901 0.01062,-0.01062 0.03443,0.01062 0.04505,0 0.0018,-0.0018 0,-0.163654 0,-0.180198 0,-0.01933 0.0048,-0.174218 0,-0.180198 -0.05307,-0.06633 -0.120132,-0.120132 -0.180198,-0.180198 -0.07508,-0.07508 -0.150165,-0.150165 -0.225248,-0.225247"
       id="path3800"
       style="color:#000000;fill:none;stroke:#000000;stroke-width:1px;stroke-linecap:butt;stroke-linejoin:miter;stroke-miterlimit:4;stroke-opacity:1;stroke-dasharray:none;stroke-dashoffset:0;marker:none;visibility:visible;display:inline;overflow:visible;enable-background:accumulate" />
    <path
       d="m 0.76584159,15.459406 c -0.060066,-0.01502 -0.11948574,-0.03291 -0.18019802,-0.04505 -0.0494497,-0.0099 -0.17085401,0 -0.22524753,0 -0.15016502,0 -0.30033003,0 -0.45049505,0 -0.01654383,0 -0.17838517,-0.0018 -0.18019802,0 -0.0106183,0.01062 0.0106183,0.03443 0,0.04505 -0.0106183,0.01062 -0.0316183,-0.0067 -0.0450495,0 -0.18748525,0.09374 0.0481595,-0.0031 -0.0450495,0.0901 -0.0106183,0.01062 -0.0344312,-0.01062 -0.0450495,0 -0.001813,0.0018 0,0.163654 0,0.180198 0,0.01502 0,0.03003 0,0.04505 0,0.01502 -0.0106183,0.03443 0,0.04505 0.0212365,0.02124 0.0632367,-0.01343 0.090099,0 0.0189945,0.0095 0.0273796,0.03327 0.0450495,0.04505 0.055877,0.03725 0.12432098,0.05285 0.18019802,0.0901 0.08242873,0.05495 0.0044945,0.05744 0.13514852,0.0901 0.02913629,0.0073 0.06096271,-0.0073 0.09009901,0 0.0325754,0.0081 0.0582442,0.03443 0.090099,0.04505 0.0142459,0.0047 0.0316183,-0.0067 0.0450495,0 0.0189945,0.0095 0.0249028,0.03833 0.0450495,0.04505 0.20507817,0 0.002576,-0.02124 0.13514851,0.04505 0.0134312,0.0067 0.030033,0 0.0450495,0 0.0450495,0 0.0914441,-0.01093 0.13514851,0 0.0206025,0.0052 0.0249028,0.03833 0.0450495,0.04505 0.0248348,0.0083 0.23206594,0 0.27029703,0 0.034437,0 0.30267203,0.0063 0.31534653,0 0.1874853,-0.09374 -0.048159,0.0031 0.04505,-0.0901 0.010618,-0.01062 0.034431,0.01062 0.045049,0 0.010618,-0.01062 -0.00672,-0.03162 0,-0.04505 0.0095,-0.019 0.035552,-0.02605 0.045049,-0.04505 0.00672,-0.01343 -0.00672,-0.03162 0,-0.04505 0.0095,-0.019 0.035552,-0.02605 0.04505,-0.04505 0.013431,-0.02686 -0.013431,-0.06324 0,-0.0901 0.0095,-0.01899 0.035552,-0.02605 0.045049,-0.04505 0.013431,-0.02686 -0.013431,-0.06324 0,-0.0901 0.0095,-0.019 0.035552,-0.02606 0.045049,-0.04505 0.00672,-0.01343 0,-0.03003 0,-0.04505 0,-0.01502 0,-0.03003 0,-0.04505 0,-0.07508 0,-0.150165 0,-0.225247 0,-0.01654 0.00181,-0.178385 0,-0.180198 -0.010618,-0.01062 -0.034431,0.01062 -0.045049,0 -0.010618,-0.01062 0.010618,-0.03443 0,-0.04505 -0.021237,-0.02124 -0.068863,0.02124 -0.090099,0 -0.010618,-0.01062 0.010618,-0.03443 0,-0.04505 -0.010618,-0.01062 -0.030033,0 -0.045049,0 -0.090099,0 -0.1801981,0 -0.2702971,0 -0.19521453,0 -0.39042906,0 -0.58564358,0 -0.0150165,0 -0.030033,0 -0.0450495,0 -0.0150165,0 -0.0344312,-0.01062 -0.0450495,0 -0.0106183,0.01062 0.0106183,0.03443 0,0.04505 -0.003617,0.0036 -0.18978849,0 -0.22524753,0 -0.0150165,0 -0.0344312,-0.01062 -0.0450495,0 -0.0106183,0.01062 0.0106183,0.03443 0,0.04505 -0.001449,0.0014 -0.12422281,0 -0.13514852,0"
       id="path3802"
       style="color:#000000;fill:none;stroke:#000000;stroke-width:1px;stroke-linecap:butt;stroke-linejoin:miter;stroke-miterlimit:4;stroke-opacity:1;stroke-dasharray:none;stroke-dashoffset:0;marker:none;visibility:visible;display:inline;overflow:visible;enable-background:accumulate" />
  </g>
</svg>
