<?xml version="1.0"?>
<svg width="100" height="100" xmlns="http://www.w3.org/2000/svg" xmlns:svg="http://www.w3.org/2000/svg">
  <path d="m36.516853,67.696625c-1.348316,0 -2.211117,0.00544 -3.037502,0c-0.88929,-0.005852 -1.735815,-0.396301 -2.670738,-0.561798c-0.854511,-0.15126 -1.707245,-0.268913 -2.582397,-0.280899c-0.926785,-0.012695 -1.851164,0.104195 -2.664419,-0.005852c-0.922152,-0.124786 -1.770927,-0.274399 -2.668539,-0.275047c-0.869522,-0.000633 -1.717749,-0.275635 -2.52809,-0.561798c-0.762619,-0.26931 -1.600506,-0.431404 -2.387642,-0.708099c-0.886389,-0.311577 -1.539024,-0.781174 -2.24719,-1.258186c-0.746454,-0.502804 -1.484418,-0.982903 -2.193773,-1.434086c-0.791349,-0.503338 -1.465191,-0.974319 -2.132069,-1.487267c-0.714454,-0.549538 -1.097065,-1.220428 -1.797753,-1.773781c-0.683038,-0.539413 -1.442595,-0.994617 -2.134831,-1.477528c-0.736302,-0.513653 -1.493659,-0.822193 -2.181648,-1.364796c-0.635119,-0.500904 -1.287449,-1.074707 -1.83647,-1.763062c-0.546656,-0.68539 -1.334779,-1.179821 -1.897144,-1.789139c-0.584209,-0.632988 -0.967734,-1.3983 -1.265637,-2.224953c-0.275407,-0.764233 -0.45381,-1.596218 -0.57191,-2.472286c-0.118687,-0.880424 0,-1.773781 0,-2.668163c0,-0.877903 0,-1.816479 0,-2.668537c0,-0.884083 0.0457,-1.747852 0.322846,-2.517979c0.298522,-0.829525 0.693882,-1.550743 1.0397,-2.313484c0.343458,-0.757534 0.850931,-1.389893 1.530712,-1.856461c0.706757,-0.485081 1.354002,-1.00835 2.219101,-1.200844c0.845767,-0.188194 1.715871,-0.168064 2.52809,-0.482021c0.637299,-0.246342 0.607123,-1.361378 0.346067,-2.158051c-0.29109,-0.888332 -0.397689,-1.707041 -0.542696,-2.611378c-0.136173,-0.849245 -0.146688,-1.697119 -0.14045,-2.636189c0.005852,-0.880959 0.28651,-1.68841 0.642322,-2.482773c0.329082,-0.734686 1.00387,-1.4774 1.46442,-2.18441c0.489913,-0.752085 1.126833,-1.339853 1.689887,-2.037312c0.570232,-0.706348 1.23131,-1.236027 1.965918,-1.765169c0.764404,-0.550606 1.409976,-1.062643 2.006321,-1.643305c0.575721,-0.560579 1.094533,-1.341434 1.877996,-1.761845c0.775772,-0.416284 1.620604,-0.744531 2.32954,-1.242415c0.710163,-0.498748 1.51992,-0.880395 2.396255,-1.153184c0.835079,-0.259947 1.702356,-0.285314 2.549484,-0.514981c0.8104,-0.21971 1.707518,-0.291927 2.375608,0.082771c0.789026,0.442526 1.576662,0.839332 2.443821,0.759926c0.876892,-0.080297 1.468649,-0.73445 2.082771,-1.365543c0.592983,-0.609369 0.999529,-1.341281 1.625093,-2.044194c0.595802,-0.669473 1.298412,-1.159087 1.911377,-1.760066c0.598568,-0.586862 1.217026,-1.278636 1.988998,-1.73132c0.779778,-0.457262 1.528999,-0.862615 2.294193,-1.345272c0.747231,-0.471326 1.392361,-0.962097 2.255619,-1.360347c0.781776,-0.36066 1.54744,-0.809266 2.392509,-1.06779c0.795231,-0.243278 1.667183,-0.554357 2.517975,-0.722846c0.858879,-0.170091 1.648735,-0.350775 2.596256,-0.400375c0.957489,-0.050121 1.75,0 2.683052,0c0.875748,0 1.737545,0 2.668213,0c0.803043,0 1.737453,0 2.665215,0c0.904869,0 1.798878,0 2.608612,0c0.923832,0 1.79015,0.095509 2.650188,0.468165c0.782616,0.339107 1.740135,0.289746 2.431084,0.779822c0.679787,0.482158 1.263611,1.142049 1.741432,1.836048c0.477753,0.693892 0.952873,1.435225 1.234222,2.285253c0.267265,0.807496 0.326515,1.883395 1.175659,2.180851c0.823158,0.288355 1.68792,0.03413 2.588387,0.03413c0.949677,0 1.650734,-0.482974 2.48877,-0.723222c0.864349,-0.247791 1.731346,-0.327986 2.63118,-0.400374c0.922821,-0.074239 1.677589,-0.418828 2.55159,-0.558801c0.883514,-0.141497 1.721657,-0.224037 2.665543,-0.283895c0.898941,-0.057008 1.765541,0 2.640823,0c0.894379,0 1.637161,0.478052 2.411232,0.808567c0.738052,0.315137 1.512451,0.740762 2.106743,1.329261c0.619492,0.613456 1.290497,1.273246 1.697426,1.991385c0.447021,0.788892 0.504456,1.71726 0.989845,2.518726c0.417252,0.688958 0.916183,1.362672 1.223076,2.217931c0.28006,0.780476 0.479103,1.747456 0.711189,2.580244c0.23941,0.859056 0.266106,1.756132 0.266106,2.548641c0,0.920975 0.244911,1.811132 -0.047943,2.666666c-0.31002,0.905693 -0.894875,1.578072 -1.49115,2.287548c-0.544731,0.648144 -1.48214,1.467197 -1.1698,1.837545c0.573074,0.679506 1.80735,-0.096367 2.624626,0.181835c0.824493,0.280659 1.575638,0.740314 2.248451,1.237453c0.703354,0.519709 1.17231,1.192728 1.549675,1.979635c0.370461,0.772516 0.371475,1.711584 0.599953,2.501451c0.248322,0.858482 0.678658,1.640141 0.938995,2.458145c0.286217,0.899326 0.449387,1.731647 0.630013,2.648689c0.173882,0.882801 0.288925,1.770813 0.296959,2.616386c0.008888,0.936287 0.077301,1.751637 0.308937,2.62233c0.226395,0.850975 0.44416,1.737312 0.679077,2.423737c0.357407,1.04435 0.416473,1.882771 0.416473,2.819103c0,0.781647 0,1.663296 0,2.547188c0,0.954685 0,1.853561 0,2.658054c0,0.974533 0.198181,1.880634 -0.047935,2.688015c-0.266701,0.874928 -0.662415,1.676182 -0.978088,2.530853c-0.239784,0.649189 -0.534714,1.606533 -0.839935,2.450562c-0.315849,0.873417 -0.776573,1.596073 -1.251266,2.2257c-0.505089,0.669945 -1.134155,1.467392 -1.898827,1.887924c-0.728195,0.400467 -1.639099,0.546387 -2.493919,0.814697c-0.841415,0.264099 -1.719566,0.31498 -2.602386,0.31498c-0.899246,0 -1.797379,0 -2.668533,0c-0.870789,0 -1.748604,-0.045273 -2.443825,-0.514229c-0.710999,-0.479599 -1.679405,-1.338867 -2.180901,-0.929214c-0.684006,0.558739 0.04493,1.805931 -0.346817,2.599251c-0.372108,0.753555 -0.955879,1.410667 -1.67865,1.976028c-0.69973,0.54734 -1.518463,0.831711 -2.310112,1.137451c-0.857033,0.330986 -1.684647,0.632126 -2.517929,0.770836c-0.865532,0.144081 -1.776077,0.01606 -2.586937,0.01606c-0.928467,0 -1.896019,0.00032 -2.73661,0c-0.978371,-0.000374 -1.723724,-0.217941 -2.551033,-0.544571c-0.803246,-0.317123 -1.703949,-0.479477 -2.589508,-0.688385c-0.86895,-0.204994 -1.681091,-0.434395 -2.570087,-0.761383c-0.789242,-0.290298 -1.748253,-0.161644 -2.622425,-0.315025c-0.787037,-0.138092 -1.666172,-0.394264 -2.459927,-0.712311c-0.783627,-0.313988 -1.642437,-0.618599 -2.483894,-0.909645c-0.771637,-0.266899 -1.721031,-0.451569 -2.600655,-0.282166c-0.77364,0.148987 -1.39473,0.895798 -2.241341,1.252342c-0.837418,0.352676 -1.651936,0.620491 -2.498829,0.948036c-0.810394,0.313431 -1.699261,0.448044 -2.542694,0.608612c-0.822853,0.156654 -1.711567,0.280899 -2.560303,0.280899c-0.898876,0 -1.83247,0.301933 -2.668537,-0.011703c-0.794018,-0.297859 -1.551952,-0.632675 -2.241341,-1.111893c-0.677608,-0.471024 -1.352901,-1.108803 -1.74892,-1.769661l-0.637455,-0.597008" id="svg_2" stroke="#294f04" fill="#007f00"/>
  <path d="m35.393257,99.438202c1.156178,-0.673782 1.810013,-1.187408 2.561424,-1.742699c0.701923,-0.518723 1.298576,-1.166031 1.731834,-1.965172c0.408688,-0.753822 0.522491,-1.664406 0.861984,-2.374344c0.390682,-0.816978 0.397099,-1.739883 0.624157,-2.523407c0.2477,-0.854759 0.833405,-1.552711 1.120598,-2.398499c0.273796,-0.806335 0.343502,-1.67942 0.403374,-2.576591c0.059769,-0.895622 0,-1.799438 0,-2.711426c0,-0.898827 0,-1.769661 0,-2.625656c0,-0.913673 0.006351,-1.784477 0,-2.705383c-0.005856,-0.848793 -0.406456,-1.559784 -0.561798,-2.397797c-0.165886,-0.89489 -0.204063,-1.785461 -0.360676,-2.640823c-0.135651,-0.740875 -0.09491,-1.652504 -0.24794,-2.551689c-0.139305,-0.818542 -0.269859,-1.670341 -0.468163,-2.528091c-0.20694,-0.895111 -0.599102,-1.676407 -0.770039,-2.467789c-0.213326,-0.987633 -0.390186,-1.714478 -0.675423,-2.58839c-0.275822,-0.845074 -0.555634,-1.64991 -0.801731,-2.574905c-0.205055,-0.770729 -0.482826,-1.667458 -0.833332,-2.424343c-0.385345,-0.832115 -0.646053,-1.614532 -0.980385,-2.399158c-0.347748,-0.816116 -0.678257,-1.607384 -1.056881,-2.363575c-0.409981,-0.818817 -0.860146,-1.573528 -1.191811,-2.36882c-0.329807,-0.790844 -0.779518,-1.571663 -0.197891,-1.63324c0.865993,-0.091682 1.753662,-0.01009 2.64045,0c0.888935,0.010113 1.355259,0.607716 1.954262,1.2066c0.579853,0.579739 1.284393,1.128521 1.781693,1.799015c0.518436,0.69899 0.777138,1.553417 1.231461,2.299252c0.457603,0.751217 0.886002,1.545807 1.099998,2.391762c0.208755,0.825233 0.610565,1.584053 0.839703,2.458801c0.226757,0.865665 0.552525,1.651081 0.869663,2.452808c0.328365,0.830112 0.951977,1.430248 1.48085,2.082771c0.56366,0.695442 1.401024,1.012451 2.174999,1.444572c0.698921,0.390221 1.392567,0.833778 2.303326,1.098312c0.779163,0.226311 1.644192,0.461235 2.557446,0.46273c0.894615,0.001465 1.755497,0.02684 2.659267,0c0.81142,-0.024094 1.565506,-0.467827 2.329727,-1.010483c0.683018,-0.484993 1.482391,-1.032585 2.133335,-1.566669c0.714958,-0.586605 1.410408,-1.082321 2.095974,-1.602245c0.735161,-0.557537 1.313103,-1.027168 2.032494,-1.550938c0.70575,-0.51384 1.636703,-0.687649 2.361046,-1.063293c0.846245,-0.438862 1.603058,-0.935612 2.274063,-1.481182c0.678467,-0.551636 1.425896,-0.90242 2.172096,-1.471111c0.667778,-0.508923 1.278656,-1.043755 2.139885,-1.476501c0.772934,-0.388382 1.660286,-1.638744 2.150284,-1.165962c0.590866,0.570107 -0.794975,1.476921 -1.089516,2.332211c-0.27951,0.811638 -0.44091,1.619579 -1.012962,2.325607c-0.533966,0.659019 -1.324432,1.058872 -1.960442,1.691246c-0.611748,0.60825 -1.061142,1.343685 -1.667419,1.935204c-0.595184,0.580692 -1.182755,1.208595 -1.797005,1.856934c-0.553757,0.584488 -0.995461,1.37236 -1.676399,1.886139c-0.674477,0.508911 -1.614548,0.556442 -2.349815,0.969666c-0.763577,0.429131 -1.510155,0.812805 -2.239323,1.248314c-0.685917,0.409676 -1.416142,0.936089 -2.095882,1.394379c-0.724876,0.488724 -1.347099,1.072426 -1.813812,1.704544c-0.51033,0.691193 -0.918335,1.406288 -1.131504,2.267365c-0.19656,0.793983 -0.420074,1.621628 -0.53783,2.467796c-0.122826,0.882591 -0.40213,1.698227 -0.551685,2.60936c-0.140968,0.858833 -0.290821,1.688019 -0.291012,2.587265c-0.000187,0.89888 -0.170696,1.755325 -0.280899,2.643448c-0.104134,0.839203 0,1.764137 0,2.687592c0,0.876823 0,1.740494 0,2.607536c0,0.913483 0,1.808617 0,2.679405c0,0.931084 0,1.797752 0,2.674576c0,0.848686 0,1.740028 0,2.653511c0,0.935959 0.01231,1.770653 0.757164,2.031464c0.156479,0.054794 -0.627235,0.187782 -1.553043,0.280899c-0.806545,0.081116 -1.68539,0.280899 -2.603043,0.280899c-0.882771,0 -1.769615,0 -2.640404,0c-0.898876,0 -1.769661,0 -2.696674,0c-0.882771,0 -1.811188,0.299416 -2.640404,-0.011703c-0.793999,-0.297905 -1.502285,-0.72963 -2.303368,-0.830994c-0.863899,-0.109306 -1.797756,0 -2.612362,-0.234085l-0.870785,-0.046814l-0.898876,0" stroke-width="1" stroke="#402000" fill="703300"/>
</svg>
